<svg aria-hidden="true" style="position: absolute; width: 0; height: 0; overflow: hidden;" version="1.1" xmlns="http://www.w3.org/2000/svg" xmlns:xlink="http://www.w3.org/1999/xlink">
<defs>
<symbol id="icon-logo" viewBox="0 0 29 32">
<path d="M17.11 1.594c0.856 1.516 0.336 3.448-1.162 4.314l-9.307 5.387c-0.246 0.142-0.398 0.408-0.398 0.694v8.456c0 0.288 0.152 0.552 0.398 0.695l7.367 4.264c0.112 0.066 0.247 0.105 0.391 0.105s0.279-0.039 0.395-0.107l-0.004 0.002 7.368-4.264c0.246-0.142 0.398-0.408 0.398-0.695v-5.258l-6.623 3.784c-0.441 0.256-0.971 0.407-1.536 0.407-1.165 0-2.179-0.642-2.709-1.591l-0.008-0.016c-0.847-1.52-0.316-3.449 1.185-4.307l9.477-5.415c2.886-1.65 6.458 0.464 6.458 3.82v9.219c0 0.004 0 0.009 0 0.013 0 2.212-1.19 4.146-2.966 5.196l-0.028 0.015-8.458 4.896c-0.845 0.498-1.862 0.793-2.948 0.793s-2.103-0.294-2.976-0.808l0.028 0.015-8.458-4.896c-1.803-1.065-2.994-2.999-2.994-5.211 0-0.004 0-0.009 0-0.013v0.001-9.742c0-0.004 0-0.008 0-0.013 0-2.212 1.19-4.146 2.966-5.196l0.028-0.015 9.858-5.706c0.445-0.261 0.979-0.415 1.55-0.415 1.159 0 2.169 0.635 2.701 1.577l0.008 0.015z"></path>
</symbol>
<symbol id="icon-css-icon" viewBox="0 0 32 32">
<path d="M1.038 0c-0.006-0-0.014-0-0.021-0-0.149 0-0.29 0.036-0.414 0.1l0.005-0.002c-0.145 0.074-0.266 0.174-0.361 0.296l-0.002 0.002c-0.095 0.121-0.168 0.265-0.208 0.422l-0.002 0.008c-0.024 0.094-0.038 0.202-0.038 0.313 0 0.065 0.005 0.128 0.014 0.191l-0.001-0.007 4.355 29.383c0.066 0.372 0.239 0.705 0.488 0.94 0.249 0.236 0.559 0.362 0.876 0.354h20.879c0.009 0 0.020 0.001 0.031 0.001 0.244 0 0.465-0.097 0.628-0.255l-0 0c0.189-0.184 0.321-0.425 0.365-0.697l0.001-0.007 4.353-29.713c0.008-0.053 0.012-0.115 0.012-0.178 0-0.113-0.015-0.223-0.042-0.328l0.002 0.009c-0.042-0.164-0.114-0.307-0.21-0.431l0.002 0.003c-0.097-0.123-0.217-0.224-0.355-0.295l-0.006-0.003c-0.119-0.061-0.26-0.097-0.409-0.097-0.008 0-0.015 0-0.023 0l0.001-0-29.921-0.009zM19.364 21.236h-6.664l-1.805-10.483h10.086l-1.617 10.483z"></path>
<path d="M30.601 10.752h-9.621l-1.614 10.484h-6.665l-7.868 10.382c0.255 0.243 0.57 0.375 0.897 0.375h20.885c0.009 0 0.020 0.001 0.031 0.001 0.244 0 0.465-0.097 0.628-0.255l-0 0c0.188-0.175 0.318-0.425 0.366-0.703l2.962-20.285z"></path>
</symbol>
<symbol id="icon-fox" viewBox="0 0 32 32">
<path fill="#fc6d26" style="fill: var(--color1, #fc6d26)" d="M31.943 18.297l-5.342-17.838c-0.046-0.134-0.126-0.247-0.229-0.331l-0.001-0.001c-0.095-0.077-0.217-0.124-0.35-0.125h-0c-0.133 0.001-0.254 0.048-0.35 0.126l0.001-0.001c-0.105 0.085-0.186 0.197-0.23 0.326l-0.002 0.005-3.55 11.858h-11.782l-3.551-11.857c-0.046-0.134-0.126-0.247-0.229-0.331l-0.001-0.001c-0.095-0.077-0.217-0.124-0.35-0.125h-0c-0.133 0.001-0.255 0.048-0.351 0.126l0.001-0.001c-0.104 0.085-0.184 0.197-0.228 0.326l-0.002 0.005-3.551 11.859-1.788 5.982c-0.077 0.269-0.077 0.562 0.003 0.83s0.235 0.498 0.44 0.651l15.497 12.222 15.497-12.223c0.205-0.153 0.36-0.383 0.44-0.651 0.038-0.125 0.061-0.269 0.061-0.419 0-0.146-0.021-0.288-0.061-0.422l0.003 0.010z"></path>
<path fill="#e24329" style="fill: var(--color2, #e24329)" d="M16 32l5.892-19.69h-11.785l5.892 19.69z"></path>
<path fill="#fc6d26" style="fill: var(--color1, #fc6d26)" d="M16 32.001l-5.892-19.687h-8.257l14.15 19.686z"></path>
<path fill="#fca326" style="fill: var(--color3, #fca326)" d="M1.849 12.314l-1.79 5.981c-0.077 0.269-0.077 0.562 0.003 0.83s0.235 0.498 0.44 0.651l15.497 12.224-14.151-19.686z"></path>
<path fill="#e24329" style="fill: var(--color2, #e24329)" d="M1.85 12.314h8.258l-3.55-11.857c-0.046-0.134-0.126-0.247-0.229-0.331l-0.001-0.001c-0.095-0.077-0.217-0.124-0.349-0.126h-0c-0.133 0.001-0.255 0.049-0.351 0.127l0.001-0.001c-0.105 0.085-0.185 0.197-0.229 0.326l-0.002 0.005-3.548 11.858z"></path>
<path fill="#fc6d26" style="fill: var(--color1, #fc6d26)" d="M16 32l5.892-19.686h8.258l-14.151 19.686z"></path>
<path fill="#fca326" style="fill: var(--color3, #fca326)" d="M30.15 12.314l1.792 5.982c0.077 0.269 0.077 0.562-0.003 0.83-0.077 0.266-0.232 0.489-0.437 0.649l-0.003 0.002-15.498 12.223 14.15-19.686z"></path>
<path fill="#e24329" style="fill: var(--color2, #e24329)" d="M30.15 12.314h-8.257l3.55-11.857c0.046-0.134 0.126-0.247 0.229-0.331l0.001-0.001c0.095-0.077 0.217-0.124 0.349-0.126h0c0.125 0 0.246 0.044 0.35 0.126 0.105 0.085 0.185 0.197 0.229 0.326l0.002 0.005 3.55 11.858h-0.003z"></path>
</symbol>
<symbol id="icon-github" viewBox="0 0 32 32">
<path d="M16 0c-3.981 0.006-7.615 1.487-10.387 3.926l0.018-0.015c-2.893 2.522-4.817 6.020-5.426 9.867-0.132 0.79-0.207 1.7-0.207 2.628 0 3.131 0.859 6.061 2.354 8.568l-0.042-0.077c1.966 3.332 5.025 5.841 8.629 7.072 0.801 0.143 1.097-0.349 1.097-0.779 0-0.39-0.020-1.686-0.020-3.057-4.020 0.759-5.060-1.004-5.38-1.927-0.37-0.921-0.931-1.698-1.637-2.311l-0.007-0.006c-0.561-0.308-1.361-1.067-0.020-1.087 0.512 0.056 1.004 0.239 1.431 0.533 0.429 0.294 0.781 0.69 1.028 1.153 0.22 0.403 0.513 0.757 0.866 1.044s0.757 0.498 1.19 0.623c0.28 0.085 0.601 0.134 0.934 0.134 0.615 0 1.191-0.166 1.685-0.457l-0.016 0.009c0.072-0.863 0.448-1.626 1.019-2.193l0-0c-3.563-0.41-7.281-1.824-7.281-8.099-0-0.029-0.001-0.062-0.001-0.096 0-1.659 0.624-3.173 1.65-4.319l-0.005 0.006c-0.209-0.586-0.33-1.262-0.33-1.967 0-0.86 0.18-1.679 0.505-2.42l-0.015 0.039s1.341-0.43 4.401 1.686c2.617-0.738 5.382-0.738 8 0 3.060-2.133 4.401-1.686 4.401-1.686 0.309 0.702 0.489 1.519 0.489 2.379 0 0.705-0.121 1.382-0.343 2.011l0.013-0.042c1.021 1.135 1.645 2.644 1.645 4.299 0 0.039-0 0.078-0.001 0.117l0-0.006c0 6.295-3.74 7.689-7.299 8.099 0.382 0.397 0.676 0.874 0.863 1.397 0.186 0.524 0.26 1.082 0.217 1.639 0 2.194-0.020 3.957-0.020 4.511 0 0.43 0.299 0.943 1.096 0.779 3.601-1.239 6.654-3.752 8.615-7.086 1.444-2.426 2.298-5.349 2.298-8.471 0-0.935-0.077-1.852-0.224-2.745l0.013 0.097c-0.612-3.843-2.538-7.338-5.431-9.86-2.754-2.421-6.386-3.9-10.364-3.907h-0.002z"></path>
</symbol>
<symbol id="icon-chrome" viewBox="0 0 32 32">
<path d="M8.071 13.954l-4.579-7.931c2.932-3.671 7.445-6.023 12.508-6.023 5.857 0 10.978 3.148 13.767 7.844h-13.055c-0.235-0.020-0.472-0.031-0.711-0.031-3.809 0-7.018 2.614-7.929 6.142zM21.728 10.156h9.171c0.711 1.81 1.101 3.781 1.101 5.844 0 8.776-7.066 15.9-15.818 15.998l6.544-11.334c0.921-1.324 1.462-2.932 1.462-4.664 0-2.287-0.943-4.357-2.459-5.844zM10.188 16c0-3.205 2.607-5.813 5.813-5.813s5.813 2.607 5.813 5.813c0 3.205-2.608 5.813-5.813 5.813s-5.813-2.608-5.813-5.813zM18.193 23.889l-4.581 7.934c-7.704-1.153-13.613-7.797-13.613-15.822 0-2.851 0.746-5.526 2.053-7.845l6.532 11.314c1.308 2.785 4.14 4.718 7.415 4.718 0.759 0 1.495-0.104 2.193-0.299z"></path>
</symbol>
<symbol id="icon-firefox" viewBox="0 0 32 32">
<path d="M31.954 10.442l-0.371 2.377c0 0-0.53-4.402-1.179-6.047-0.995-2.521-1.438-2.501-1.441-2.498 0.667 1.694 0.546 2.604 0.546 2.604s-1.181-3.219-4.303-4.243c-3.459-1.134-5.33-0.824-5.547-0.765-0.033-0-0.064-0-0.095-0 0.026 0.002 0.050 0.005 0.076 0.007-0.001 0.001-0.003 0.001-0.003 0.002 0.014 0.017 3.822 0.666 4.497 1.594 0 0-1.617 0-3.227 0.464-0.073 0.021 5.923 0.749 7.148 6.74 0 0-0.657-1.371-1.47-1.604 0.535 1.626 0.397 4.712-0.112 6.245-0.066 0.197-0.133-0.853-1.135-1.305 0.321 2.301-0.019 5.952-1.616 6.957-0.124 0.078 1.001-3.603 0.226-2.18-4.46 6.838-9.731 3.155-12.101 1.535 1.215 0.264 3.52-0.041 4.541-0.8 0.001-0.001 0.002-0.002 0.004-0.003 1.108-0.758 1.765-1.311 2.354-1.18s0.982-0.46 0.524-0.985c-0.459-0.526-1.572-1.249-3.079-0.855-1.063 0.278-2.379 1.454-4.389 0.264-1.543-0.914-1.688-1.673-1.702-2.199 0.038-0.186 0.086-0.361 0.143-0.52 0.178-0.496 0.716-0.646 1.015-0.764 0.508 0.087 0.946 0.246 1.405 0.481 0.006-0.153 0.008-0.356-0.001-0.586 0.044-0.088 0.017-0.352-0.054-0.674-0.041-0.322-0.107-0.655-0.211-0.959 0-0 0.001-0 0.001-0 0.002-0.001 0.003-0.001 0.005-0.002s0.005-0.004 0.007-0.006c0-0.001 0.001-0.001 0.001-0.002 0.003-0.004 0.005-0.008 0.006-0.015 0.032-0.144 0.376-0.423 0.804-0.722 0.383-0.268 0.834-0.553 1.19-0.774 0.314-0.195 0.554-0.34 0.605-0.378 0.019-0.015 0.042-0.032 0.068-0.051 0.005-0.004 0.009-0.007 0.014-0.011 0.003-0.002 0.006-0.005 0.009-0.007 0.169-0.135 0.421-0.389 0.474-0.924 0-0.001 0-0.002 0-0.004 0.002-0.016 0.003-0.032 0.004-0.048 0.001-0.011 0.002-0.023 0.002-0.034 0-0.009 0.001-0.018 0.001-0.027 0.001-0.021 0.002-0.043 0.002-0.065 0-0.001 0-0.002 0-0.004 0.001-0.052-0-0.106-0.003-0.163-0.002-0.032-0.004-0.060-0.009-0.086-0-0.001-0.001-0.003-0.001-0.004-0.001-0.003-0.001-0.005-0.002-0.008-0.001-0.005-0.002-0.009-0.004-0.013-0-0.001-0-0.001-0.001-0.001-0.002-0.005-0.004-0.010-0.005-0.014-0-0-0-0-0-0.001-0.055-0.128-0.26-0.177-1.108-0.191-0.001-0-0.002-0-0.002-0v0c-0.346-0.006-0.798-0.006-1.391-0.004-1.039 0.004-1.613-1.016-1.797-1.41 0.251-1.389 0.977-2.379 2.17-3.051 0.023-0.013 0.018-0.023-0.009-0.031 0.233-0.141-2.82-0.004-4.225 1.782-1.247-0.31-2.333-0.289-3.269-0.069-0.18-0.005-0.404-0.027-0.67-0.083-0.623-0.564-1.514-1.606-1.562-2.85 0 0-0.003 0.002-0.008 0.006-0.001-0.012-0.002-0.024-0.002-0.036 0 0-1.897 1.458-1.613 5.434-0.001 0.064-0.002 0.125-0.004 0.184-0.514 0.696-0.768 1.282-0.787 1.411-0.455 0.926-0.917 2.32-1.292 4.437 0 0 0.263-0.833 0.79-1.777-0.388 1.188-0.693 3.036-0.514 5.808 0 0 0.047-0.615 0.215-1.5 0.131 1.719 0.704 3.841 2.152 6.337 2.78 4.791 7.052 7.211 11.775 7.582 0.839 0.069 1.689 0.071 2.544 0.006 0.079-0.006 0.157-0.011 0.236-0.018 0.968-0.068 1.942-0.214 2.914-0.449 13.287-3.212 11.842-19.256 11.842-19.256z"></path>
</symbol>
</defs>
</svg>
