<svg aria-hidden="true" style="position: absolute; width: 0; height: 0; overflow: hidden;" version="1.1" xmlns="http://www.w3.org/2000/svg" xmlns:xlink="http://www.w3.org/1999/xlink">
<defs>

<symbol id="icon-logo" viewBox="0 0 29 32">
<path d="M17.11 1.594c0.856 1.516 0.336 3.448-1.162 4.314l-9.307 5.387c-0.246 0.142-0.398 0.408-0.398 0.694v8.456c0 0.288 0.152 0.552 0.398 0.695l7.367 4.264c0.112 0.066 0.247 0.105 0.391 0.105s0.279-0.039 0.395-0.107l-0.004 0.002 7.368-4.264c0.246-0.142 0.398-0.408 0.398-0.695v-5.258l-6.623 3.784c-0.441 0.256-0.971 0.407-1.536 0.407-1.165 0-2.179-0.642-2.709-1.591l-0.008-0.016c-0.847-1.52-0.316-3.449 1.185-4.307l9.477-5.415c2.886-1.65 6.458 0.464 6.458 3.82v9.219c0 0.004 0 0.009 0 0.013 0 2.212-1.19 4.146-2.966 5.196l-0.028 0.015-8.458 4.896c-0.845 0.498-1.862 0.793-2.948 0.793s-2.103-0.294-2.976-0.808l0.028 0.015-8.458-4.896c-1.803-1.065-2.994-2.999-2.994-5.211 0-0.004 0-0.009 0-0.013v0.001-9.742c0-0.004 0-0.008 0-0.013 0-2.212 1.19-4.146 2.966-5.196l0.028-0.015 9.858-5.706c0.445-0.261 0.979-0.415 1.55-0.415 1.159 0 2.169 0.635 2.701 1.577l0.008 0.015z"></path>
</symbol>

<symbol id="icon-css-icon" viewBox="0 0 32 32">
<path d="M1.038 0c-0.006-0-0.014-0-0.021-0-0.149 0-0.29 0.036-0.414 0.1l0.005-0.002c-0.145 0.074-0.266 0.174-0.361 0.296l-0.002 0.002c-0.095 0.121-0.168 0.265-0.208 0.422l-0.002 0.008c-0.024 0.094-0.038 0.202-0.038 0.313 0 0.065 0.005 0.128 0.014 0.191l-0.001-0.007 4.355 29.383c0.066 0.372 0.239 0.705 0.488 0.94 0.249 0.236 0.559 0.362 0.876 0.354h20.879c0.009 0 0.020 0.001 0.031 0.001 0.244 0 0.465-0.097 0.628-0.255l-0 0c0.189-0.184 0.321-0.425 0.365-0.697l0.001-0.007 4.353-29.713c0.008-0.053 0.012-0.115 0.012-0.178 0-0.113-0.015-0.223-0.042-0.328l0.002 0.009c-0.042-0.164-0.114-0.307-0.21-0.431l0.002 0.003c-0.097-0.123-0.217-0.224-0.355-0.295l-0.006-0.003c-0.119-0.061-0.26-0.097-0.409-0.097-0.008 0-0.015 0-0.023 0l0.001-0-29.921-0.009zM19.364 21.236h-6.664l-1.805-10.483h10.086l-1.617 10.483z"></path>
<path d="M30.601 10.752h-9.621l-1.614 10.484h-6.665l-7.868 10.382c0.255 0.243 0.57 0.375 0.897 0.375h20.885c0.009 0 0.020 0.001 0.031 0.001 0.244 0 0.465-0.097 0.628-0.255l-0 0c0.188-0.175 0.318-0.425 0.366-0.703l2.962-20.285z"></path>
</symbol>
<symbol id="icon-fox" viewBox="0 0 32 32">
<path fill="#fc6d26" style="fill: var(--color1, #fc6d26)" d="M31.943 18.297l-5.342-17.838c-0.046-0.134-0.126-0.247-0.229-0.331l-0.001-0.001c-0.095-0.077-0.217-0.124-0.35-0.125h-0c-0.133 0.001-0.254 0.048-0.35 0.126l0.001-0.001c-0.105 0.085-0.186 0.197-0.23 0.326l-0.002 0.005-3.55 11.858h-11.782l-3.551-11.857c-0.046-0.134-0.126-0.247-0.229-0.331l-0.001-0.001c-0.095-0.077-0.217-0.124-0.35-0.125h-0c-0.133 0.001-0.255 0.048-0.351 0.126l0.001-0.001c-0.104 0.085-0.184 0.197-0.228 0.326l-0.002 0.005-3.551 11.859-1.788 5.982c-0.077 0.269-0.077 0.562 0.003 0.83s0.235 0.498 0.44 0.651l15.497 12.222 15.497-12.223c0.205-0.153 0.36-0.383 0.44-0.651 0.038-0.125 0.061-0.269 0.061-0.419 0-0.146-0.021-0.288-0.061-0.422l0.003 0.010z"></path>
<path fill="#e24329" style="fill: var(--color2, #e24329)" d="M16 32l5.892-19.69h-11.785l5.892 19.69z"></path>
<path fill="#fc6d26" style="fill: var(--color1, #fc6d26)" d="M16 32.001l-5.892-19.687h-8.257l14.15 19.686z"></path>
<path fill="#fca326" style="fill: var(--color3, #fca326)" d="M1.849 12.314l-1.79 5.981c-0.077 0.269-0.077 0.562 0.003 0.83s0.235 0.498 0.44 0.651l15.497 12.224-14.151-19.686z"></path>
<path fill="#e24329" style="fill: var(--color2, #e24329)" d="M1.85 12.314h8.258l-3.55-11.857c-0.046-0.134-0.126-0.247-0.229-0.331l-0.001-0.001c-0.095-0.077-0.217-0.124-0.349-0.126h-0c-0.133 0.001-0.255 0.049-0.351 0.127l0.001-0.001c-0.105 0.085-0.185 0.197-0.229 0.326l-0.002 0.005-3.548 11.858z"></path>
<path fill="#fc6d26" style="fill: var(--color1, #fc6d26)" d="M16 32l5.892-19.686h8.258l-14.151 19.686z"></path>
<path fill="#fca326" style="fill: var(--color3, #fca326)" d="M30.15 12.314l1.792 5.982c0.077 0.269 0.077 0.562-0.003 0.83-0.077 0.266-0.232 0.489-0.437 0.649l-0.003 0.002-15.498 12.223 14.15-19.686z"></path>
<path fill="#e24329" style="fill: var(--color2, #e24329)" d="M30.15 12.314h-8.257l3.55-11.857c0.046-0.134 0.126-0.247 0.229-0.331l0.001-0.001c0.095-0.077 0.217-0.124 0.349-0.126h0c0.125 0 0.246 0.044 0.35 0.126 0.105 0.085 0.185 0.197 0.229 0.326l0.002 0.005 3.55 11.858h-0.003z"></path>
</symbol>
<symbol id="icon-github" viewBox="0 0 32 32">
<path d="M16 0c-3.981 0.006-7.615 1.487-10.387 3.926l0.018-0.015c-2.893 2.522-4.817 6.020-5.426 9.867-0.132 0.79-0.207 1.7-0.207 2.628 0 3.131 0.859 6.061 2.354 8.568l-0.042-0.077c1.966 3.332 5.025 5.841 8.629 7.072 0.801 0.143 1.097-0.349 1.097-0.779 0-0.39-0.020-1.686-0.020-3.057-4.020 0.759-5.060-1.004-5.38-1.927-0.37-0.921-0.931-1.698-1.637-2.311l-0.007-0.006c-0.561-0.308-1.361-1.067-0.020-1.087 0.512 0.056 1.004 0.239 1.431 0.533 0.429 0.294 0.781 0.69 1.028 1.153 0.22 0.403 0.513 0.757 0.866 1.044s0.757 0.498 1.19 0.623c0.28 0.085 0.601 0.134 0.934 0.134 0.615 0 1.191-0.166 1.685-0.457l-0.016 0.009c0.072-0.863 0.448-1.626 1.019-2.193l0-0c-3.563-0.41-7.281-1.824-7.281-8.099-0-0.029-0.001-0.062-0.001-0.096 0-1.659 0.624-3.173 1.65-4.319l-0.005 0.006c-0.209-0.586-0.33-1.262-0.33-1.967 0-0.86 0.18-1.679 0.505-2.42l-0.015 0.039s1.341-0.43 4.401 1.686c2.617-0.738 5.382-0.738 8 0 3.060-2.133 4.401-1.686 4.401-1.686 0.309 0.702 0.489 1.519 0.489 2.379 0 0.705-0.121 1.382-0.343 2.011l0.013-0.042c1.021 1.135 1.645 2.644 1.645 4.299 0 0.039-0 0.078-0.001 0.117l0-0.006c0 6.295-3.74 7.689-7.299 8.099 0.382 0.397 0.676 0.874 0.863 1.397 0.186 0.524 0.26 1.082 0.217 1.639 0 2.194-0.020 3.957-0.020 4.511 0 0.43 0.299 0.943 1.096 0.779 3.601-1.239 6.654-3.752 8.615-7.086 1.444-2.426 2.298-5.349 2.298-8.471 0-0.935-0.077-1.852-0.224-2.745l0.013 0.097c-0.612-3.843-2.538-7.338-5.431-9.86-2.754-2.421-6.386-3.9-10.364-3.907h-0.002z"></path>
</symbol>

<symbol id="icon-dwave-1" viewBox="0 0 54 32">
<path fill="#1d2329" style="fill: var(--color1, #1d2329)" d="M33.007 16.272c-0.272 0.236-0.608 0.358-0.994 0.358h-2.825c-0.385 0-0.715-0.122-0.985-0.358s-0.411-0.546-0.411-0.921v-0.228c0-0.359 0.14-0.66 0.427-0.904 0.288-0.252 0.608-0.375 0.969-0.375h1.799v0.847h-1.799c-0.123 0-0.23 0.041-0.336 0.123-0.107 0.089-0.156 0.187-0.156 0.309v0.228c0 0.285 0.164 0.424 0.493 0.424h2.825c0.336 0 0.501-0.139 0.501-0.424v-2.183c0-0.114-0.049-0.212-0.156-0.301s-0.222-0.131-0.345-0.131h-4.139v-0.847h4.139c0.369 0 0.69 0.123 0.969 0.375 0.288 0.252 0.427 0.554 0.427 0.904v2.183c0 0.375-0.131 0.684-0.402 0.921v0zM38.685 15.351c-0.221 0.856-0.682 1.279-1.396 1.279h-1.216c-0.714 0-1.174-0.423-1.396-1.279l-0.895-3.462h0.961l0.862 3.299c0.099 0.391 0.304 0.587 0.6 0.587h0.952c0.304 0 0.517-0.196 0.616-0.587l0.854-3.299h0.961l-0.904 3.462zM45.11 14.301c-0.288 0.252-0.608 0.374-0.969 0.374h-1.807v-0.855h1.807c0.115 0 0.222-0.041 0.329-0.122 0.107-0.090 0.165-0.187 0.165-0.301v-0.228c0-0.285-0.165-0.432-0.493-0.432h-2.833c-0.329 0-0.493 0.147-0.493 0.432v2.174c0 0.122 0.050 0.22 0.156 0.302 0.107 0.089 0.213 0.13 0.337 0.13h4.148v0.847h-4.148c-0.362 0-0.681-0.122-0.969-0.366-0.287-0.253-0.427-0.554-0.427-0.912v-2.174c0-0.383 0.14-0.685 0.411-0.921s0.599-0.359 0.985-0.359h2.833c0.386 0 0.715 0.123 0.986 0.351 0.27 0.236 0.411 0.546 0.411 0.929v0.228c0 0.35-0.14 0.651-0.427 0.904v0zM16.223 14.253c0 0.312-0.255 0.565-0.57 0.565s-0.57-0.253-0.57-0.565c0-0.312 0.256-0.566 0.57-0.566s0.57 0.254 0.57 0.566zM16.223 12.449c0 0.312-0.255 0.565-0.57 0.565s-0.57-0.253-0.57-0.565c0-0.313 0.256-0.565 0.57-0.565s0.57 0.253 0.57 0.565zM18.117 16.057c0 0.312-0.255 0.566-0.57 0.566-0.314 0-0.569-0.254-0.569-0.566s0.255-0.565 0.569-0.565c0.315 0 0.57 0.253 0.57 0.565z"></path>
<path fill="#3875e1" style="fill: var(--color2, #3875e1)" d="M18.117 14.253c0 0.312-0.255 0.565-0.57 0.565-0.314 0-0.569-0.253-0.569-0.565s0.255-0.566 0.569-0.566c0.315 0 0.57 0.254 0.57 0.566z"></path>
<path fill="#1d2329" style="fill: var(--color1, #1d2329)" d="M22.914 15.343l-0.020 0.082c-0.229 0.793-0.679 1.186-1.366 1.186h-0.626c-0.712 0-1.169-0.422-1.39-1.273l-0.892-3.448h0.957l0.859 3.286c0.098 0.39 0.303 0.585 0.597 0.585h0.364c0.303 0 0.515-0.192 0.614-0.582 0 0 0.223-0.683 0.903-0.691 0 0 0.668-0.064 0.897 0.663l0.009 0.025z"></path>
<path fill="#1d2329" style="fill: var(--color1, #1d2329)" d="M23.821 15.174c0.092 0.377 0.321 0.585 0.615 0.585h0.364c0.303 0 0.515-0.194 0.614-0.585l0.851-3.285h0.957l-0.9 3.448c-0.221 0.852-0.679 1.274-1.39 1.274h-0.626c-0.711 0-1.173-0.425-1.394-1.277l0.91-0.16zM13.202 13.167c0-0.114-0.049-0.212-0.154-0.302-0.106-0.090-0.212-0.131-0.334-0.131h-3.513v3.047h3.512c0.325 0 0.488-0.138 0.488-0.425l0-2.189zM13.698 16.279c-0.269 0.237-0.602 0.359-0.984 0.359h-4.399v-4.754h4.399c0.358 0 0.675 0.123 0.959 0.376s0.423 0.556 0.423 0.907v2.189c0 0.376-0.13 0.686-0.398 0.923zM8.36 17.901h1.394v0.212h-0.581v1.443h-0.241v-1.443h-0.572v-0.212zM9.94 17.901h0.217v0.705c0.091-0.11 0.204-0.165 0.339-0.165 0.073 0 0.139 0.018 0.198 0.054s0.101 0.087 0.13 0.151c0.028 0.064 0.042 0.16 0.042 0.286v0.624h-0.217v-0.677c0-0.080-0.020-0.144-0.059-0.193s-0.092-0.073-0.157-0.073c-0.048 0-0.093 0.012-0.136 0.037s-0.090 0.065-0.141 0.122v0.784h-0.217v-1.656zM11.328 18.899h0.553c-0.005-0.086-0.032-0.153-0.078-0.2s-0.108-0.070-0.186-0.070-0.142 0.024-0.192 0.070c-0.050 0.047-0.082 0.113-0.097 0.2v0zM12.095 19.029h-0.773c0.006 0.105 0.041 0.188 0.106 0.25s0.149 0.093 0.252 0.093c0.143 0 0.276-0.045 0.397-0.133v0.21c-0.067 0.044-0.133 0.076-0.199 0.094s-0.143 0.028-0.231 0.028c-0.122 0-0.219-0.025-0.294-0.075s-0.135-0.117-0.18-0.202c-0.045-0.084-0.067-0.182-0.067-0.293 0-0.166 0.047-0.302 0.142-0.406s0.218-0.156 0.369-0.156c0.146 0 0.262 0.051 0.349 0.152s0.13 0.238 0.13 0.409v0.027zM13.862 18.101c-0.187 0-0.342 0.060-0.465 0.18s-0.183 0.271-0.183 0.454c0 0.178 0.062 0.325 0.185 0.444s0.277 0.177 0.463 0.177c0.183 0 0.338-0.061 0.463-0.182s0.188-0.269 0.188-0.446c0-0.181-0.062-0.331-0.185-0.45s-0.279-0.178-0.467-0.178zM14.722 19.66l-0.24 0.234c-0.075-0.003-0.153-0.017-0.234-0.040s-0.164-0.054-0.248-0.093c-0.084-0.040-0.196-0.108-0.335-0.203-0.202-0.036-0.369-0.132-0.501-0.287s-0.197-0.334-0.197-0.536c0-0.247 0.084-0.452 0.254-0.614s0.383-0.243 0.643-0.243c0.258 0 0.471 0.081 0.642 0.241s0.256 0.363 0.256 0.606c0 0.205-0.064 0.384-0.194 0.539s-0.296 0.253-0.5 0.293l0.063 0.024c0.196 0.075 0.338 0.112 0.424 0.112 0.048 0 0.104-0.010 0.167-0.033v0zM15.738 19.557v-0.14c-0.047 0.050-0.099 0.089-0.159 0.117s-0.119 0.041-0.178 0.041c-0.070 0-0.134-0.017-0.193-0.051s-0.103-0.081-0.133-0.14c-0.030-0.058-0.045-0.157-0.045-0.293v-0.625h0.217v0.623c0 0.115 0.017 0.195 0.050 0.24s0.092 0.068 0.175 0.068c0.104 0 0.193-0.050 0.266-0.151v-0.78h0.217v1.092l-0.217 0zM16.753 19.339v-0.325l-0.145 0.056c-0.074 0.029-0.126 0.058-0.157 0.088s-0.046 0.067-0.046 0.111c0 0.045 0.015 0.082 0.043 0.111s0.066 0.043 0.113 0.043c0.069 0 0.133-0.028 0.192-0.084v-0zM16.968 18.898v0.464c0 0.037 0.012 0.055 0.038 0.055s0.067-0.019 0.124-0.057v0.132c-0.049 0.031-0.089 0.052-0.118 0.063s-0.061 0.017-0.094 0.017c-0.093 0-0.147-0.036-0.164-0.107-0.093 0.071-0.191 0.107-0.296 0.107-0.077 0-0.141-0.025-0.192-0.076s-0.077-0.113-0.077-0.189c0-0.069 0.025-0.13 0.075-0.185s0.121-0.097 0.213-0.129l0.278-0.095v-0.058c0-0.133-0.066-0.199-0.198-0.199-0.118 0-0.234 0.061-0.346 0.182v-0.235c0.084-0.098 0.206-0.147 0.364-0.147 0.118 0 0.214 0.031 0.286 0.092 0.024 0.020 0.045 0.046 0.064 0.079s0.032 0.066 0.036 0.099c0.005 0.033 0.008 0.095 0.008 0.187l0 0zM17.533 18.465v0.133c0.097-0.105 0.207-0.158 0.331-0.158 0.068 0 0.132 0.017 0.191 0.053s0.103 0.084 0.135 0.145c0.031 0.061 0.046 0.159 0.046 0.292v0.626h-0.217v-0.625c0-0.112-0.017-0.192-0.051-0.24s-0.092-0.072-0.172-0.072c-0.103 0-0.19 0.051-0.262 0.152v0.785h-0.223v-1.092l0.223 0zM18.38 18.638l0.41-0.4v0.227h0.348v0.194h-0.348v0.534c0 0.125 0.052 0.187 0.156 0.187 0.078 0 0.16-0.025 0.247-0.076v0.2c-0.084 0.047-0.175 0.070-0.274 0.070s-0.182-0.029-0.248-0.087c-0.020-0.017-0.038-0.037-0.052-0.058s-0.025-0.050-0.034-0.086c-0.009-0.035-0.014-0.102-0.014-0.201v-0.484h-0.192l-0-0.022zM20.057 19.557v-0.14c-0.047 0.050-0.099 0.089-0.159 0.117s-0.119 0.041-0.178 0.041c-0.070 0-0.134-0.017-0.193-0.051s-0.103-0.081-0.133-0.14c-0.030-0.058-0.045-0.157-0.045-0.293v-0.625h0.217v0.623c0 0.115 0.017 0.195 0.050 0.24s0.092 0.068 0.175 0.068c0.105 0 0.194-0.050 0.266-0.151v-0.78h0.217v1.092l-0.217 0zM21.474 18.765v0.792h-0.22v-0.61c0-0.122-0.017-0.206-0.049-0.255s-0.090-0.072-0.171-0.072c-0.045 0-0.087 0.010-0.125 0.032s-0.081 0.059-0.129 0.113v0.792h-0.217v-1.091h0.217v0.144c0.111-0.112 0.219-0.168 0.325-0.168 0.139 0 0.247 0.067 0.324 0.201 0.116-0.133 0.237-0.201 0.363-0.201 0.107 0 0.194 0.039 0.263 0.117s0.103 0.196 0.103 0.355v0.644h-0.217v-0.649c0-0.091-0.019-0.161-0.056-0.209s-0.091-0.072-0.161-0.072c-0.090 0-0.173 0.046-0.251 0.139v-0zM24.611 19.172v0.261c-0.175 0.095-0.378 0.143-0.607 0.143-0.186 0-0.345-0.038-0.474-0.112s-0.233-0.177-0.308-0.307c-0.076-0.131-0.114-0.272-0.114-0.424 0-0.241 0.087-0.444 0.26-0.609s0.387-0.247 0.641-0.247c0.175 0 0.37 0.046 0.585 0.136v0.255c-0.196-0.111-0.386-0.167-0.573-0.167-0.191 0-0.35 0.059-0.476 0.18s-0.189 0.27-0.189 0.451c0 0.182 0.062 0.332 0.186 0.449s0.284 0.176 0.477 0.176c0.202 0 0.4-0.062 0.593-0.185v0zM25.373 18.656c-0.104 0-0.189 0.034-0.256 0.102s-0.1 0.154-0.1 0.259c0 0.104 0.034 0.189 0.102 0.255s0.156 0.099 0.262 0.099 0.193-0.033 0.261-0.1c0.068-0.067 0.101-0.152 0.101-0.257 0-0.103-0.035-0.189-0.106-0.257s-0.159-0.102-0.266-0.102h0zM25.385 18.462c0.167 0 0.305 0.053 0.416 0.161s0.165 0.242 0.165 0.404c0 0.158-0.056 0.288-0.168 0.392s-0.253 0.156-0.423 0.156c-0.164 0-0.301-0.053-0.411-0.159s-0.166-0.237-0.166-0.395c0-0.16 0.055-0.293 0.167-0.399s0.251-0.16 0.42-0.16v-0zM27.107 18.765v0.792h-0.22v-0.61c0-0.122-0.017-0.206-0.049-0.255s-0.090-0.072-0.171-0.072c-0.045 0-0.087 0.010-0.125 0.032s-0.081 0.059-0.129 0.113v0.792h-0.217v-1.091h0.217v0.144c0.111-0.112 0.219-0.168 0.325-0.168 0.139 0 0.247 0.067 0.324 0.201 0.116-0.133 0.237-0.201 0.363-0.201 0.107 0 0.194 0.039 0.263 0.117s0.103 0.196 0.103 0.355v0.644h-0.217v-0.649c0-0.091-0.019-0.161-0.056-0.209s-0.091-0.072-0.161-0.072c-0.090 0-0.173 0.046-0.251 0.139l-0-0zM28.466 18.668h-0.154v0.669c0.067 0.035 0.137 0.052 0.21 0.052 0.102 0 0.185-0.035 0.25-0.105s0.097-0.161 0.097-0.271c0-0.071-0.015-0.134-0.046-0.188s-0.072-0.094-0.125-0.119c-0.053-0.025-0.13-0.038-0.232-0.038v-0zM28.089 20.115v-1.649h0.381c0.195 0 0.347 0.048 0.455 0.145s0.163 0.231 0.163 0.404c0 0.164-0.051 0.298-0.154 0.403s-0.232 0.158-0.391 0.158c-0.070 0-0.147-0.015-0.232-0.046v0.586l-0.223-0zM30.025 19.557v-0.14c-0.047 0.050-0.099 0.089-0.159 0.117s-0.119 0.041-0.178 0.041c-0.070 0-0.134-0.017-0.193-0.051s-0.103-0.081-0.133-0.14c-0.030-0.058-0.046-0.157-0.046-0.293v-0.625h0.217v0.623c0 0.115 0.017 0.195 0.050 0.24s0.092 0.068 0.175 0.068c0.104 0 0.193-0.050 0.266-0.151v-0.78h0.217v1.092l-0.217 0zM30.397 18.638l0.41-0.4v0.227h0.348v0.194h-0.348v0.534c0 0.125 0.052 0.187 0.156 0.187 0.078 0 0.16-0.025 0.247-0.076v0.2c-0.084 0.047-0.175 0.070-0.273 0.070-0.1 0-0.183-0.029-0.248-0.087-0.020-0.017-0.038-0.037-0.052-0.058s-0.025-0.050-0.034-0.086c-0.009-0.035-0.014-0.102-0.014-0.201v-0.484h-0.192l-0-0.022zM31.383 18.465h0.217v1.092h-0.217v-1.092zM31.492 18.008c0.036 0 0.066 0.012 0.092 0.036s0.038 0.054 0.038 0.090c0 0.034-0.012 0.065-0.038 0.090s-0.056 0.038-0.092 0.038c-0.034 0-0.063-0.013-0.088-0.039s-0.038-0.055-0.038-0.089c0-0.033 0.012-0.063 0.038-0.088s0.055-0.038 0.088-0.038v0zM32.129 18.465v0.133c0.097-0.105 0.208-0.158 0.331-0.158 0.068 0 0.132 0.017 0.191 0.053s0.103 0.084 0.135 0.145c0.031 0.061 0.046 0.159 0.046 0.292v0.626h-0.217v-0.625c0-0.112-0.017-0.192-0.051-0.24s-0.092-0.072-0.172-0.072c-0.103 0-0.19 0.051-0.262 0.152v0.785h-0.223v-1.092l0.223 0zM33.474 18.653c-0.059 0-0.109 0.020-0.151 0.059s-0.062 0.087-0.062 0.143c0 0.056 0.020 0.103 0.061 0.14s0.092 0.055 0.155 0.055c0.061 0 0.112-0.019 0.154-0.056s0.062-0.085 0.062-0.141c0-0.057-0.021-0.105-0.062-0.143s-0.094-0.057-0.156-0.057h-0zM33.422 19.609c-0.073 0-0.133 0.015-0.18 0.046s-0.070 0.070-0.070 0.119c0 0.112 0.102 0.168 0.305 0.168 0.096 0 0.171-0.015 0.224-0.042s0.079-0.068 0.079-0.119c0-0.050-0.033-0.091-0.1-0.124s-0.153-0.048-0.259-0.048v0zM33.066 18.843c0-0.117 0.043-0.208 0.128-0.276s0.203-0.102 0.351-0.102h0.453v0.17h-0.222c0.043 0.043 0.073 0.083 0.090 0.119s0.025 0.077 0.025 0.122c0 0.057-0.017 0.113-0.049 0.168s-0.075 0.097-0.126 0.126c-0.051 0.029-0.136 0.053-0.253 0.070-0.083 0.012-0.125 0.040-0.125 0.084 0 0.025 0.015 0.046 0.046 0.062s0.086 0.033 0.167 0.050c0.135 0.030 0.221 0.052 0.26 0.069s0.073 0.040 0.105 0.071c0.053 0.052 0.079 0.118 0.079 0.197 0 0.104-0.047 0.186-0.139 0.248s-0.217 0.092-0.372 0.092c-0.157 0-0.282-0.031-0.376-0.093s-0.14-0.145-0.14-0.25c0-0.148 0.092-0.243 0.275-0.286-0.073-0.047-0.11-0.093-0.11-0.139 0-0.035 0.016-0.067 0.048-0.095 0.031-0.029 0.074-0.049 0.127-0.063-0.161-0.071-0.242-0.186-0.242-0.346h-0zM36.316 19.172v0.261c-0.175 0.095-0.378 0.143-0.607 0.143-0.186 0-0.345-0.038-0.474-0.112s-0.233-0.177-0.308-0.307c-0.076-0.131-0.113-0.272-0.113-0.424 0-0.241 0.086-0.444 0.26-0.609s0.387-0.247 0.641-0.247c0.175 0 0.37 0.046 0.584 0.136v0.255c-0.195-0.111-0.385-0.167-0.572-0.167-0.191 0-0.35 0.059-0.476 0.18s-0.189 0.27-0.189 0.451c0 0.182 0.062 0.332 0.186 0.449s0.283 0.176 0.477 0.176c0.202 0 0.4-0.062 0.593-0.185l0 0zM37.079 18.656c-0.104 0-0.189 0.034-0.256 0.102s-0.1 0.154-0.1 0.259c0 0.104 0.034 0.189 0.103 0.255s0.156 0.099 0.262 0.099c0.107 0 0.194-0.033 0.261-0.1s0.101-0.152 0.101-0.257c0-0.103-0.035-0.189-0.106-0.257s-0.159-0.102-0.266-0.102h0zM37.090 18.462c0.167 0 0.305 0.053 0.415 0.161s0.165 0.242 0.165 0.404c0 0.158-0.056 0.288-0.168 0.392s-0.252 0.156-0.423 0.156c-0.164 0-0.301-0.053-0.411-0.159s-0.166-0.237-0.166-0.395c0-0.16 0.055-0.293 0.167-0.399s0.251-0.16 0.42-0.16v-0zM38.813 18.765v0.792h-0.22v-0.61c0-0.122-0.017-0.206-0.049-0.255s-0.089-0.072-0.171-0.072c-0.045 0-0.087 0.010-0.125 0.032s-0.081 0.059-0.129 0.113v0.792h-0.217v-1.091h0.217v0.144c0.111-0.112 0.219-0.168 0.325-0.168 0.139 0 0.247 0.067 0.324 0.201 0.116-0.133 0.237-0.201 0.364-0.201 0.106 0 0.193 0.039 0.262 0.117s0.103 0.196 0.103 0.355v0.644h-0.217v-0.649c0-0.091-0.019-0.161-0.056-0.209s-0.091-0.072-0.161-0.072c-0.090 0-0.173 0.046-0.251 0.139l-0-0zM40.171 18.668h-0.154v0.669c0.067 0.035 0.137 0.052 0.21 0.052 0.102 0 0.185-0.035 0.25-0.105s0.097-0.161 0.097-0.271c0-0.071-0.015-0.134-0.046-0.188s-0.072-0.094-0.125-0.119c-0.053-0.025-0.13-0.038-0.232-0.038v-0zM39.795 20.115v-1.649h0.381c0.195 0 0.347 0.048 0.456 0.145 0.108 0.096 0.162 0.231 0.162 0.404 0 0.164-0.051 0.298-0.153 0.403s-0.233 0.158-0.391 0.158c-0.070 0-0.148-0.015-0.233-0.046v0.586l-0.223-0zM41.52 19.339v-0.325l-0.145 0.056c-0.075 0.029-0.127 0.058-0.157 0.088s-0.046 0.067-0.046 0.111c0 0.045 0.014 0.082 0.044 0.111s0.066 0.043 0.113 0.043c0.069 0 0.133-0.028 0.192-0.084v-0zM41.734 18.898v0.464c0 0.037 0.013 0.055 0.039 0.055 0.027 0 0.068-0.019 0.124-0.057v0.132c-0.050 0.031-0.089 0.052-0.119 0.063s-0.061 0.017-0.094 0.017c-0.093 0-0.147-0.036-0.164-0.107-0.093 0.071-0.191 0.107-0.297 0.107-0.077 0-0.141-0.025-0.192-0.076s-0.077-0.113-0.077-0.189c0-0.069 0.025-0.13 0.075-0.185s0.121-0.097 0.213-0.129l0.278-0.095v-0.058c0-0.133-0.066-0.199-0.198-0.199-0.118 0-0.234 0.061-0.346 0.182v-0.235c0.084-0.098 0.206-0.147 0.364-0.147 0.118 0 0.213 0.031 0.285 0.092 0.024 0.020 0.045 0.046 0.064 0.079s0.031 0.066 0.036 0.099c0.006 0.033 0.007 0.095 0.007 0.187l0.001 0zM42.3 18.465v0.133c0.098-0.105 0.208-0.158 0.331-0.158 0.068 0 0.132 0.017 0.191 0.053s0.103 0.084 0.135 0.145c0.030 0.061 0.046 0.159 0.046 0.292v0.626h-0.217v-0.625c0-0.112-0.017-0.192-0.051-0.24s-0.092-0.072-0.172-0.072c-0.103 0-0.19 0.051-0.263 0.152v0.785h-0.223v-1.092l0.223 0zM43.931 18.465h0.243l-0.775 1.649h-0.243l0.371-0.788-0.423-0.861h0.248l0.294 0.614 0.285-0.614zM45.022 19.114h-0.095v-0.618h0.153l0.157 0.494 0.152-0.494h0.149v0.618h-0.095v-0.519l-0.159 0.519h-0.094l-0.169-0.528v0.528zM44.653 19.114h-0.104v-0.531h-0.203v-0.088h0.511v0.088h-0.205v0.531z"></path>
</symbol>
<symbol id="icon-amazon-1" viewBox="0 0 130 32">
<path fill="#f90" style="fill: var(--color3, #f90)" d="M74.685 26.666c-4.704 3.478-11.521 5.334-17.391 5.334-8.23 0-15.64-3.054-21.246-8.133-0.44-0.399-0.046-0.944 0.483-0.633 6.050 3.531 13.529 5.656 21.256 5.656 5.211 0 10.943-1.082 16.214-3.326 0.796-0.339 1.462 0.523 0.683 1.103z"></path>
<path fill="#f90" style="fill: var(--color3, #f90)" d="M76.64 24.422c-0.599-0.771-3.974-0.364-5.489-0.184-0.462 0.057-0.532-0.346-0.116-0.636 2.688-1.898 7.099-1.35 7.614-0.714 0.514 0.64-0.134 5.076-2.66 7.193-0.388 0.325-0.758 0.152-0.585-0.279 0.567-1.421 1.839-4.606 1.237-5.38z"></path>
<path fill="#000" style="fill: var(--color4, #000)" d="M71.257 10.202v-1.845c0-0.279 0.211-0.467 0.465-0.467h8.234c0.264 0 0.476 0.191 0.476 0.467v1.58c-0.003 0.265-0.225 0.611-0.62 1.159l-4.267 6.111c1.585-0.039 3.259 0.198 4.697 1.011 0.324 0.184 0.412 0.453 0.437 0.718v1.969c0 0.269-0.296 0.583-0.606 0.421-2.533-1.333-5.898-1.477-8.699 0.014-0.285 0.156-0.585-0.155-0.585-0.424v-1.87c0-0.301 0.003-0.813 0.303-1.269l4.943-7.112h-4.302c-0.264 0-0.476-0.187-0.476-0.463z"></path>
<path fill="#000" style="fill: var(--color4, #000)" d="M41.22 21.714h-2.505c-0.24-0.018-0.43-0.198-0.447-0.428v-12.898c0-0.258 0.215-0.463 0.483-0.463h2.336c0.243 0.011 0.437 0.198 0.455 0.431v1.686h0.046c0.609-1.629 1.755-2.389 3.298-2.389 1.568 0 2.547 0.76 3.252 2.389 0.606-1.629 1.984-2.389 3.46-2.389 1.050 0 2.199 0.435 2.9 1.41 0.793 1.085 0.631 2.662 0.631 4.044l-0.004 8.14c0 0.258-0.215 0.467-0.483 0.467h-2.502c-0.25-0.018-0.451-0.219-0.451-0.467v-6.836c0-0.544 0.049-1.902-0.071-2.418-0.187-0.866-0.747-1.11-1.473-1.11-0.606 0-1.24 0.406-1.497 1.057s-0.233 1.739-0.233 2.471v6.836c0 0.258-0.215 0.467-0.483 0.467h-2.502c-0.254-0.018-0.451-0.219-0.451-0.467l-0.003-6.836c0-1.439 0.236-3.556-1.543-3.556-1.8 0-1.73 2.064-1.73 3.556v6.836c0 0.258-0.215 0.467-0.483 0.467z"></path>
<path fill="#000" style="fill: var(--color4, #000)" d="M87.52 7.653c3.717 0 5.729 3.202 5.729 7.274 0 3.934-2.223 7.055-5.729 7.055-3.65 0-5.637-3.202-5.637-7.193 0-4.015 2.012-7.137 5.637-7.137zM87.541 10.286c-1.846 0-1.962 2.524-1.962 4.097 0 1.576-0.025 4.941 1.941 4.941 1.941 0 2.033-2.715 2.033-4.369 0-1.089-0.046-2.389-0.373-3.422-0.282-0.898-0.842-1.248-1.638-1.248z"></path>
<path fill="#000" style="fill: var(--color4, #000)" d="M98.070 21.714h-2.495c-0.25-0.018-0.451-0.219-0.451-0.467l-0.004-12.902c0.022-0.237 0.23-0.421 0.483-0.421h2.322c0.218 0.011 0.398 0.159 0.447 0.361v1.972h0.046c0.701-1.764 1.685-2.605 3.415-2.605 1.124 0 2.219 0.406 2.924 1.52 0.655 1.032 0.655 2.768 0.655 4.015v8.119c-0.028 0.226-0.236 0.407-0.483 0.407h-2.512c-0.229-0.018-0.419-0.187-0.444-0.407v-7.006c0-1.41 0.163-3.475-1.568-3.475-0.609 0-1.169 0.41-1.448 1.032-0.352 0.788-0.398 1.573-0.398 2.442v6.946c-0.004 0.258-0.222 0.467-0.489 0.467z"></path>
<path fill="#000" style="fill: var(--color4, #000)" d="M64.693 15.553v-0.544c-1.815 0-3.728 0.389-3.728 2.531 0 1.085 0.564 1.82 1.526 1.82 0.701 0 1.335-0.435 1.733-1.142 0.493-0.87 0.469-1.686 0.469-2.665zM67.219 21.679c-0.166 0.149-0.405 0.159-0.592 0.060-0.832-0.693-0.983-1.015-1.438-1.675-1.374 1.407-2.35 1.827-4.129 1.827-2.111 0-3.749-1.304-3.749-3.916 0-2.040 1.099-3.429 2.671-4.107 1.36-0.601 3.259-0.707 4.711-0.873v-0.325c0-0.597 0.046-1.304-0.307-1.82-0.303-0.463-0.888-0.654-1.406-0.654-0.955 0-1.804 0.491-2.012 1.509-0.042 0.226-0.208 0.449-0.437 0.459l-2.428-0.262c-0.204-0.046-0.433-0.212-0.373-0.527 0.557-2.955 3.22-3.846 5.602-3.846 1.219 0 2.812 0.325 3.773 1.251 1.219 1.142 1.103 2.665 1.103 4.323v3.916c0 1.177 0.486 1.693 0.944 2.329 0.159 0.226 0.194 0.498-0.011 0.668-0.511 0.428-1.42 1.223-1.92 1.668l-0.003-0.007z"></path>
<path fill="#000" style="fill: var(--color4, #000)" d="M31.852 15.553v-0.544c-1.811 0-3.724 0.389-3.724 2.531 0 1.085 0.56 1.82 1.522 1.82 0.705 0 1.335-0.435 1.733-1.142 0.493-0.87 0.469-1.686 0.469-2.665zM34.378 21.679c-0.166 0.149-0.405 0.159-0.592 0.060-0.832-0.693-0.979-1.015-1.438-1.675-1.374 1.407-2.347 1.827-4.129 1.827-2.107 0-3.749-1.304-3.749-3.916 0-2.040 1.103-3.429 2.671-4.107 1.36-0.601 3.259-0.707 4.711-0.873v-0.325c0-0.597 0.046-1.304-0.303-1.82-0.306-0.463-0.891-0.654-1.406-0.654-0.955 0-1.808 0.491-2.015 1.509-0.042 0.226-0.208 0.449-0.433 0.459l-2.431-0.262c-0.204-0.046-0.43-0.212-0.373-0.527 0.56-2.955 3.22-3.846 5.602-3.846 1.219 0 2.812 0.325 3.773 1.251 1.219 1.142 1.103 2.665 1.103 4.323v3.916c0 1.177 0.486 1.693 0.944 2.329 0.162 0.226 0.197 0.498-0.007 0.668-0.511 0.428-1.42 1.223-1.92 1.668l-0.007-0.007z"></path>
</symbol>
<symbol id="icon-code-institute-1" viewBox="0 0 72 32">
<path fill="#4a4a4f" style="fill: var(--color5, #4a4a4f)" d="M12.501 10.973c-0.457-0.858-1.006-1.471-1.707-1.9s-1.524-0.644-2.47-0.644c-1.25 0-2.317 0.46-3.171 1.379s-1.281 2.084-1.281 3.464c0 1.379 0.427 2.513 1.311 3.433s1.951 1.349 3.293 1.349c1.006 0 1.86-0.215 2.531-0.644s1.189-1.103 1.494-1.962h3.964c-0.488 1.992-1.433 3.525-2.835 4.659s-3.11 1.686-5.153 1.686c-1.189 0-2.287-0.215-3.293-0.644s-1.921-1.042-2.744-1.9c-0.762-0.797-1.342-1.686-1.768-2.759-0.457-1.011-0.671-2.084-0.671-3.157 0-1.134 0.183-2.207 0.579-3.188s0.976-1.87 1.738-2.667c0.854-0.889 1.768-1.563 2.835-2.023 1.037-0.46 2.195-0.705 3.384-0.705 1.951 0 3.659 0.552 5.122 1.686 1.433 1.134 2.378 2.636 2.835 4.536h-3.994zM49.789 6.529v-6.529h3.689v21.395h-3.689v-1.318c-0.732 0.582-1.524 1.012-2.317 1.318-0.823 0.276-1.707 0.429-2.653 0.429-1.006 0-1.951-0.153-2.866-0.49-0.884-0.337-1.707-0.797-2.409-1.41-0.976-0.858-1.707-1.839-2.226-3.004s-0.793-2.36-0.793-3.648c0-1.195 0.244-2.329 0.732-3.433s1.159-2.054 2.043-2.851c0.732-0.705 1.555-1.226 2.5-1.594s1.951-0.552 3.018-0.552c1.037 0 1.951 0.123 2.744 0.398 0.762 0.276 1.524 0.705 2.226 1.287zM49.636 13.364c0-1.379-0.427-2.544-1.311-3.464s-1.951-1.379-3.262-1.379c-1.281 0-2.378 0.46-3.293 1.41s-1.372 2.054-1.372 3.372c0 1.349 0.457 2.483 1.372 3.402s2.073 1.349 3.476 1.349c1.22 0 2.256-0.46 3.11-1.379 0.823-0.858 1.281-1.992 1.281-3.31zM59.484 14.498c0.122 1.165 0.579 2.084 1.372 2.759s1.829 1.012 3.079 1.012c0.854 0 1.585-0.184 2.256-0.521 0.671-0.368 1.189-0.858 1.585-1.471h4.025c-0.671 1.747-1.707 3.126-3.049 4.107-1.372 0.981-2.927 1.471-4.726 1.471-1.189 0-2.287-0.215-3.293-0.644s-1.921-1.042-2.714-1.9c-0.762-0.797-1.342-1.716-1.768-2.759s-0.64-2.115-0.64-3.188c0-1.134 0.183-2.176 0.579-3.188 0.396-0.981 0.945-1.9 1.707-2.667 0.823-0.858 1.738-1.533 2.774-2.023 1.037-0.46 2.104-0.705 3.201-0.705 1.403 0 2.683 0.306 3.903 0.95s2.226 1.533 3.079 2.697c0.518 0.705 0.884 1.471 1.159 2.33 0.244 0.858 0.366 1.839 0.366 2.973 0 0.092 0 0.215 0 0.398s0 0.306 0 0.398l-12.897-0.031zM68.326 11.525c-0.305-1.073-0.854-1.9-1.616-2.452s-1.707-0.858-2.866-0.858c-0.976 0-1.89 0.306-2.683 0.92s-1.311 1.41-1.585 2.391h8.75z"></path>
<path fill="#e84610" style="fill: var(--color6, #e84610)" d="M18.11 13.242c0-1.134 0.213-2.207 0.61-3.249 0.427-1.011 1.006-1.931 1.799-2.728 0.793-0.828 1.707-1.441 2.744-1.87 1.006-0.429 2.073-0.644 3.171-0.644 1.159 0 2.226 0.184 3.201 0.582s1.89 0.95 2.714 1.747c0.854 0.828 1.494 1.747 1.951 2.82s0.701 2.146 0.701 3.28c0 1.226-0.183 2.36-0.61 3.372-0.396 1.012-1.006 1.931-1.799 2.759s-1.707 1.471-2.744 1.9-2.134 0.644-3.323 0.644c-1.22 0-2.317-0.215-3.293-0.644-1.006-0.429-1.89-1.073-2.713-1.931-0.793-0.858-1.372-1.778-1.768-2.789-0.457-1.073-0.64-2.115-0.64-3.249zM21.952 13.211c0 1.502 0.396 2.697 1.22 3.556 0.823 0.889 1.951 1.318 3.354 1.318 1.372 0 2.47-0.46 3.293-1.349s1.22-2.084 1.22-3.617c0-1.349-0.427-2.483-1.281-3.341s-1.951-1.318-3.232-1.318c-1.342 0-2.439 0.429-3.293 1.318s-1.281 2.023-1.281 3.433zM36.495 25.686v-0.797h0.793v0.797h-0.793zM36.526 31.939v-4.874h0.701v4.874h-0.701zM42.319 31.939v-3.004c0-0.858-0.457-1.287-1.189-1.287s-1.189 0.429-1.189 1.287v3.004h-0.701v-4.874h0.701v0.521c0.335-0.398 0.823-0.582 1.372-0.582 0.518 0 0.945 0.153 1.25 0.46 0.335 0.337 0.488 0.797 0.488 1.349v3.126h-0.732zM46.465 32c-0.823 0-1.463-0.184-1.982-0.705l0.488-0.49c0.396 0.398 0.915 0.552 1.494 0.552 0.793 0 1.281-0.276 1.281-0.858 0-0.429-0.244-0.674-0.793-0.705l-0.793-0.061c-0.945-0.092-1.463-0.49-1.463-1.318 0-0.889 0.732-1.41 1.768-1.41 0.701 0 1.311 0.184 1.738 0.521l-0.457 0.46c-0.335-0.276-0.793-0.398-1.281-0.398-0.701 0-1.098 0.306-1.098 0.797 0 0.429 0.244 0.674 0.854 0.705l0.793 0.061c0.854 0.092 1.433 0.398 1.433 1.318 0 0.981-0.793 1.533-1.982 1.533zM51.282 31.939c-0.823 0-1.25-0.582-1.25-1.318v-3.004h-0.61v-0.552h0.61v-1.533h0.701v1.533h1.037v0.552h-1.037v2.973c0 0.429 0.214 0.705 0.671 0.705h0.366v0.613l-0.488 0.031zM53.356 25.686v-0.797h0.793v0.797h-0.793zM53.386 31.939v-4.874h0.701v4.874h-0.701zM57.441 31.939c-0.823 0-1.25-0.582-1.25-1.318v-3.004h-0.61v-0.552h0.61v-1.533h0.701v1.533h1.037v0.552h-1.037v2.973c0 0.429 0.213 0.705 0.671 0.705h0.366v0.613l-0.488 0.031zM62.594 31.939v-0.552c-0.335 0.398-0.823 0.613-1.372 0.613-0.518 0-0.945-0.153-1.25-0.46-0.335-0.337-0.488-0.797-0.488-1.379v-3.096h0.701v3.004c0 0.858 0.457 1.287 1.189 1.287s1.22-0.429 1.22-1.287v-3.004h0.701v4.874h-0.701zM66.618 31.939c-0.823 0-1.25-0.582-1.25-1.318v-3.004h-0.61v-0.552h0.61v-1.533h0.701v1.533h1.037v0.552h-1.037v2.973c0 0.429 0.213 0.705 0.671 0.705h0.366v0.613l-0.488 0.031zM69.088 29.701c0 1.073 0.488 1.686 1.433 1.686 0.549 0 0.884-0.184 1.281-0.552l0.488 0.429c-0.488 0.49-0.945 0.766-1.768 0.766-1.281 0-2.104-0.766-2.104-2.483 0-1.563 0.762-2.483 1.982-2.483 1.25 0 1.982 0.92 1.982 2.36v0.337l-3.293-0.061zM71.497 28.353c-0.183-0.429-0.61-0.736-1.128-0.736s-0.945 0.276-1.128 0.736c-0.122 0.276-0.122 0.429-0.152 0.797h2.561c-0.030-0.368-0.030-0.521-0.152-0.797z"></path>
</symbol>
<symbol id="icon-dwave-11" viewBox="0 0 54 32">
<path fill="#1d2329" style="fill: var(--color1, #1d2329)" d="M33.007 16.272c-0.272 0.236-0.608 0.358-0.994 0.358h-2.825c-0.385 0-0.715-0.122-0.985-0.358s-0.411-0.546-0.411-0.921v-0.228c0-0.359 0.14-0.66 0.427-0.904 0.288-0.252 0.608-0.375 0.969-0.375h1.799v0.847h-1.799c-0.123 0-0.23 0.041-0.336 0.123-0.107 0.089-0.156 0.187-0.156 0.309v0.228c0 0.285 0.164 0.424 0.493 0.424h2.825c0.336 0 0.501-0.139 0.501-0.424v-2.183c0-0.114-0.049-0.212-0.156-0.301s-0.222-0.131-0.345-0.131h-4.139v-0.847h4.139c0.369 0 0.69 0.123 0.969 0.375 0.288 0.252 0.427 0.554 0.427 0.904v2.183c0 0.375-0.131 0.684-0.402 0.921v0zM38.685 15.351c-0.221 0.856-0.682 1.279-1.396 1.279h-1.216c-0.714 0-1.174-0.423-1.396-1.279l-0.895-3.462h0.961l0.862 3.299c0.099 0.391 0.304 0.587 0.6 0.587h0.952c0.304 0 0.517-0.196 0.616-0.587l0.854-3.299h0.961l-0.904 3.462zM45.11 14.301c-0.288 0.252-0.608 0.374-0.969 0.374h-1.807v-0.855h1.807c0.115 0 0.222-0.041 0.329-0.122 0.107-0.090 0.165-0.187 0.165-0.301v-0.228c0-0.285-0.165-0.432-0.493-0.432h-2.833c-0.329 0-0.493 0.147-0.493 0.432v2.174c0 0.122 0.050 0.22 0.156 0.302 0.107 0.089 0.213 0.13 0.337 0.13h4.148v0.847h-4.148c-0.362 0-0.681-0.122-0.969-0.366-0.287-0.253-0.427-0.554-0.427-0.912v-2.174c0-0.383 0.14-0.685 0.411-0.921s0.599-0.359 0.985-0.359h2.833c0.386 0 0.715 0.123 0.986 0.351 0.27 0.236 0.411 0.546 0.411 0.929v0.228c0 0.35-0.14 0.651-0.427 0.904v0zM16.223 14.253c0 0.312-0.255 0.565-0.57 0.565s-0.57-0.253-0.57-0.565c0-0.312 0.256-0.566 0.57-0.566s0.57 0.254 0.57 0.566zM16.223 12.449c0 0.312-0.255 0.565-0.57 0.565s-0.57-0.253-0.57-0.565c0-0.313 0.256-0.565 0.57-0.565s0.57 0.253 0.57 0.565zM18.117 16.057c0 0.312-0.255 0.566-0.57 0.566-0.314 0-0.569-0.254-0.569-0.566s0.255-0.565 0.569-0.565c0.315 0 0.57 0.253 0.57 0.565z"></path>
<path fill="#3875e1" style="fill: var(--color2, #3875e1)" d="M18.117 14.253c0 0.312-0.255 0.565-0.57 0.565-0.314 0-0.569-0.253-0.569-0.565s0.255-0.566 0.569-0.566c0.315 0 0.57 0.254 0.57 0.566z"></path>
<path fill="#1d2329" style="fill: var(--color1, #1d2329)" d="M22.914 15.343l-0.020 0.082c-0.229 0.793-0.679 1.186-1.366 1.186h-0.626c-0.712 0-1.169-0.422-1.39-1.273l-0.892-3.448h0.957l0.859 3.286c0.098 0.39 0.303 0.585 0.597 0.585h0.364c0.303 0 0.515-0.192 0.614-0.582 0 0 0.223-0.683 0.903-0.691 0 0 0.668-0.064 0.897 0.663l0.009 0.025z"></path>
<path fill="#1d2329" style="fill: var(--color1, #1d2329)" d="M23.821 15.174c0.092 0.377 0.321 0.585 0.615 0.585h0.364c0.303 0 0.515-0.194 0.614-0.585l0.851-3.285h0.957l-0.9 3.448c-0.221 0.852-0.679 1.274-1.39 1.274h-0.626c-0.711 0-1.173-0.425-1.394-1.277l0.91-0.16zM13.202 13.167c0-0.114-0.049-0.212-0.154-0.302-0.106-0.090-0.212-0.131-0.334-0.131h-3.513v3.047h3.512c0.325 0 0.488-0.138 0.488-0.425l0-2.189zM13.698 16.279c-0.269 0.237-0.602 0.359-0.984 0.359h-4.399v-4.754h4.399c0.358 0 0.675 0.123 0.959 0.376s0.423 0.556 0.423 0.907v2.189c0 0.376-0.13 0.686-0.398 0.923zM8.36 17.901h1.394v0.212h-0.581v1.443h-0.241v-1.443h-0.572v-0.212zM9.94 17.901h0.217v0.705c0.091-0.11 0.204-0.165 0.339-0.165 0.073 0 0.139 0.018 0.198 0.054s0.101 0.087 0.13 0.151c0.028 0.064 0.042 0.16 0.042 0.286v0.624h-0.217v-0.677c0-0.080-0.020-0.144-0.059-0.193s-0.092-0.073-0.157-0.073c-0.048 0-0.093 0.012-0.136 0.037s-0.090 0.065-0.141 0.122v0.784h-0.217v-1.656zM11.328 18.899h0.553c-0.005-0.086-0.032-0.153-0.078-0.2s-0.108-0.070-0.186-0.070-0.142 0.024-0.192 0.070c-0.050 0.047-0.082 0.113-0.097 0.2v0zM12.095 19.029h-0.773c0.006 0.105 0.041 0.188 0.106 0.25s0.149 0.093 0.252 0.093c0.143 0 0.276-0.045 0.397-0.133v0.21c-0.067 0.044-0.133 0.076-0.199 0.094s-0.143 0.028-0.231 0.028c-0.122 0-0.219-0.025-0.294-0.075s-0.135-0.117-0.18-0.202c-0.045-0.084-0.067-0.182-0.067-0.293 0-0.166 0.047-0.302 0.142-0.406s0.218-0.156 0.369-0.156c0.146 0 0.262 0.051 0.349 0.152s0.13 0.238 0.13 0.409v0.027zM13.862 18.101c-0.187 0-0.342 0.060-0.465 0.18s-0.183 0.271-0.183 0.454c0 0.178 0.062 0.325 0.185 0.444s0.277 0.177 0.463 0.177c0.183 0 0.338-0.061 0.463-0.182s0.188-0.269 0.188-0.446c0-0.181-0.062-0.331-0.185-0.45s-0.279-0.178-0.467-0.178zM14.722 19.66l-0.24 0.234c-0.075-0.003-0.153-0.017-0.234-0.040s-0.164-0.054-0.248-0.093c-0.084-0.040-0.196-0.108-0.335-0.203-0.202-0.036-0.369-0.132-0.501-0.287s-0.197-0.334-0.197-0.536c0-0.247 0.084-0.452 0.254-0.614s0.383-0.243 0.643-0.243c0.258 0 0.471 0.081 0.642 0.241s0.256 0.363 0.256 0.606c0 0.205-0.064 0.384-0.194 0.539s-0.296 0.253-0.5 0.293l0.063 0.024c0.196 0.075 0.338 0.112 0.424 0.112 0.048 0 0.104-0.010 0.167-0.033v0zM15.738 19.557v-0.14c-0.047 0.050-0.099 0.089-0.159 0.117s-0.119 0.041-0.178 0.041c-0.070 0-0.134-0.017-0.193-0.051s-0.103-0.081-0.133-0.14c-0.030-0.058-0.045-0.157-0.045-0.293v-0.625h0.217v0.623c0 0.115 0.017 0.195 0.050 0.24s0.092 0.068 0.175 0.068c0.104 0 0.193-0.050 0.266-0.151v-0.78h0.217v1.092l-0.217 0zM16.753 19.339v-0.325l-0.145 0.056c-0.074 0.029-0.126 0.058-0.157 0.088s-0.046 0.067-0.046 0.111c0 0.045 0.015 0.082 0.043 0.111s0.066 0.043 0.113 0.043c0.069 0 0.133-0.028 0.192-0.084v-0zM16.968 18.898v0.464c0 0.037 0.012 0.055 0.038 0.055s0.067-0.019 0.124-0.057v0.132c-0.049 0.031-0.089 0.052-0.118 0.063s-0.061 0.017-0.094 0.017c-0.093 0-0.147-0.036-0.164-0.107-0.093 0.071-0.191 0.107-0.296 0.107-0.077 0-0.141-0.025-0.192-0.076s-0.077-0.113-0.077-0.189c0-0.069 0.025-0.13 0.075-0.185s0.121-0.097 0.213-0.129l0.278-0.095v-0.058c0-0.133-0.066-0.199-0.198-0.199-0.118 0-0.234 0.061-0.346 0.182v-0.235c0.084-0.098 0.206-0.147 0.364-0.147 0.118 0 0.214 0.031 0.286 0.092 0.024 0.020 0.045 0.046 0.064 0.079s0.032 0.066 0.036 0.099c0.005 0.033 0.008 0.095 0.008 0.187l0 0zM17.533 18.465v0.133c0.097-0.105 0.207-0.158 0.331-0.158 0.068 0 0.132 0.017 0.191 0.053s0.103 0.084 0.135 0.145c0.031 0.061 0.046 0.159 0.046 0.292v0.626h-0.217v-0.625c0-0.112-0.017-0.192-0.051-0.24s-0.092-0.072-0.172-0.072c-0.103 0-0.19 0.051-0.262 0.152v0.785h-0.223v-1.092l0.223 0zM18.38 18.638l0.41-0.4v0.227h0.348v0.194h-0.348v0.534c0 0.125 0.052 0.187 0.156 0.187 0.078 0 0.16-0.025 0.247-0.076v0.2c-0.084 0.047-0.175 0.070-0.274 0.070s-0.182-0.029-0.248-0.087c-0.020-0.017-0.038-0.037-0.052-0.058s-0.025-0.050-0.034-0.086c-0.009-0.035-0.014-0.102-0.014-0.201v-0.484h-0.192l-0-0.022zM20.057 19.557v-0.14c-0.047 0.050-0.099 0.089-0.159 0.117s-0.119 0.041-0.178 0.041c-0.070 0-0.134-0.017-0.193-0.051s-0.103-0.081-0.133-0.14c-0.030-0.058-0.045-0.157-0.045-0.293v-0.625h0.217v0.623c0 0.115 0.017 0.195 0.050 0.24s0.092 0.068 0.175 0.068c0.105 0 0.194-0.050 0.266-0.151v-0.78h0.217v1.092l-0.217 0zM21.474 18.765v0.792h-0.22v-0.61c0-0.122-0.017-0.206-0.049-0.255s-0.090-0.072-0.171-0.072c-0.045 0-0.087 0.010-0.125 0.032s-0.081 0.059-0.129 0.113v0.792h-0.217v-1.091h0.217v0.144c0.111-0.112 0.219-0.168 0.325-0.168 0.139 0 0.247 0.067 0.324 0.201 0.116-0.133 0.237-0.201 0.363-0.201 0.107 0 0.194 0.039 0.263 0.117s0.103 0.196 0.103 0.355v0.644h-0.217v-0.649c0-0.091-0.019-0.161-0.056-0.209s-0.091-0.072-0.161-0.072c-0.090 0-0.173 0.046-0.251 0.139v-0zM24.611 19.172v0.261c-0.175 0.095-0.378 0.143-0.607 0.143-0.186 0-0.345-0.038-0.474-0.112s-0.233-0.177-0.308-0.307c-0.076-0.131-0.114-0.272-0.114-0.424 0-0.241 0.087-0.444 0.26-0.609s0.387-0.247 0.641-0.247c0.175 0 0.37 0.046 0.585 0.136v0.255c-0.196-0.111-0.386-0.167-0.573-0.167-0.191 0-0.35 0.059-0.476 0.18s-0.189 0.27-0.189 0.451c0 0.182 0.062 0.332 0.186 0.449s0.284 0.176 0.477 0.176c0.202 0 0.4-0.062 0.593-0.185v0zM25.373 18.656c-0.104 0-0.189 0.034-0.256 0.102s-0.1 0.154-0.1 0.259c0 0.104 0.034 0.189 0.102 0.255s0.156 0.099 0.262 0.099 0.193-0.033 0.261-0.1c0.068-0.067 0.101-0.152 0.101-0.257 0-0.103-0.035-0.189-0.106-0.257s-0.159-0.102-0.266-0.102h0zM25.385 18.462c0.167 0 0.305 0.053 0.416 0.161s0.165 0.242 0.165 0.404c0 0.158-0.056 0.288-0.168 0.392s-0.253 0.156-0.423 0.156c-0.164 0-0.301-0.053-0.411-0.159s-0.166-0.237-0.166-0.395c0-0.16 0.055-0.293 0.167-0.399s0.251-0.16 0.42-0.16v-0zM27.107 18.765v0.792h-0.22v-0.61c0-0.122-0.017-0.206-0.049-0.255s-0.090-0.072-0.171-0.072c-0.045 0-0.087 0.010-0.125 0.032s-0.081 0.059-0.129 0.113v0.792h-0.217v-1.091h0.217v0.144c0.111-0.112 0.219-0.168 0.325-0.168 0.139 0 0.247 0.067 0.324 0.201 0.116-0.133 0.237-0.201 0.363-0.201 0.107 0 0.194 0.039 0.263 0.117s0.103 0.196 0.103 0.355v0.644h-0.217v-0.649c0-0.091-0.019-0.161-0.056-0.209s-0.091-0.072-0.161-0.072c-0.090 0-0.173 0.046-0.251 0.139l-0-0zM28.466 18.668h-0.154v0.669c0.067 0.035 0.137 0.052 0.21 0.052 0.102 0 0.185-0.035 0.25-0.105s0.097-0.161 0.097-0.271c0-0.071-0.015-0.134-0.046-0.188s-0.072-0.094-0.125-0.119c-0.053-0.025-0.13-0.038-0.232-0.038v-0zM28.089 20.115v-1.649h0.381c0.195 0 0.347 0.048 0.455 0.145s0.163 0.231 0.163 0.404c0 0.164-0.051 0.298-0.154 0.403s-0.232 0.158-0.391 0.158c-0.070 0-0.147-0.015-0.232-0.046v0.586l-0.223-0zM30.025 19.557v-0.14c-0.047 0.050-0.099 0.089-0.159 0.117s-0.119 0.041-0.178 0.041c-0.070 0-0.134-0.017-0.193-0.051s-0.103-0.081-0.133-0.14c-0.030-0.058-0.046-0.157-0.046-0.293v-0.625h0.217v0.623c0 0.115 0.017 0.195 0.050 0.24s0.092 0.068 0.175 0.068c0.104 0 0.193-0.050 0.266-0.151v-0.78h0.217v1.092l-0.217 0zM30.397 18.638l0.41-0.4v0.227h0.348v0.194h-0.348v0.534c0 0.125 0.052 0.187 0.156 0.187 0.078 0 0.16-0.025 0.247-0.076v0.2c-0.084 0.047-0.175 0.070-0.273 0.070-0.1 0-0.183-0.029-0.248-0.087-0.020-0.017-0.038-0.037-0.052-0.058s-0.025-0.050-0.034-0.086c-0.009-0.035-0.014-0.102-0.014-0.201v-0.484h-0.192l-0-0.022zM31.383 18.465h0.217v1.092h-0.217v-1.092zM31.492 18.008c0.036 0 0.066 0.012 0.092 0.036s0.038 0.054 0.038 0.090c0 0.034-0.012 0.065-0.038 0.090s-0.056 0.038-0.092 0.038c-0.034 0-0.063-0.013-0.088-0.039s-0.038-0.055-0.038-0.089c0-0.033 0.012-0.063 0.038-0.088s0.055-0.038 0.088-0.038v0zM32.129 18.465v0.133c0.097-0.105 0.208-0.158 0.331-0.158 0.068 0 0.132 0.017 0.191 0.053s0.103 0.084 0.135 0.145c0.031 0.061 0.046 0.159 0.046 0.292v0.626h-0.217v-0.625c0-0.112-0.017-0.192-0.051-0.24s-0.092-0.072-0.172-0.072c-0.103 0-0.19 0.051-0.262 0.152v0.785h-0.223v-1.092l0.223 0zM33.474 18.653c-0.059 0-0.109 0.020-0.151 0.059s-0.062 0.087-0.062 0.143c0 0.056 0.020 0.103 0.061 0.14s0.092 0.055 0.155 0.055c0.061 0 0.112-0.019 0.154-0.056s0.062-0.085 0.062-0.141c0-0.057-0.021-0.105-0.062-0.143s-0.094-0.057-0.156-0.057h-0zM33.422 19.609c-0.073 0-0.133 0.015-0.18 0.046s-0.070 0.070-0.070 0.119c0 0.112 0.102 0.168 0.305 0.168 0.096 0 0.171-0.015 0.224-0.042s0.079-0.068 0.079-0.119c0-0.050-0.033-0.091-0.1-0.124s-0.153-0.048-0.259-0.048v0zM33.066 18.843c0-0.117 0.043-0.208 0.128-0.276s0.203-0.102 0.351-0.102h0.453v0.17h-0.222c0.043 0.043 0.073 0.083 0.090 0.119s0.025 0.077 0.025 0.122c0 0.057-0.017 0.113-0.049 0.168s-0.075 0.097-0.126 0.126c-0.051 0.029-0.136 0.053-0.253 0.070-0.083 0.012-0.125 0.040-0.125 0.084 0 0.025 0.015 0.046 0.046 0.062s0.086 0.033 0.167 0.050c0.135 0.030 0.221 0.052 0.26 0.069s0.073 0.040 0.105 0.071c0.053 0.052 0.079 0.118 0.079 0.197 0 0.104-0.047 0.186-0.139 0.248s-0.217 0.092-0.372 0.092c-0.157 0-0.282-0.031-0.376-0.093s-0.14-0.145-0.14-0.25c0-0.148 0.092-0.243 0.275-0.286-0.073-0.047-0.11-0.093-0.11-0.139 0-0.035 0.016-0.067 0.048-0.095 0.031-0.029 0.074-0.049 0.127-0.063-0.161-0.071-0.242-0.186-0.242-0.346h-0zM36.316 19.172v0.261c-0.175 0.095-0.378 0.143-0.607 0.143-0.186 0-0.345-0.038-0.474-0.112s-0.233-0.177-0.308-0.307c-0.076-0.131-0.113-0.272-0.113-0.424 0-0.241 0.086-0.444 0.26-0.609s0.387-0.247 0.641-0.247c0.175 0 0.37 0.046 0.584 0.136v0.255c-0.195-0.111-0.385-0.167-0.572-0.167-0.191 0-0.35 0.059-0.476 0.18s-0.189 0.27-0.189 0.451c0 0.182 0.062 0.332 0.186 0.449s0.283 0.176 0.477 0.176c0.202 0 0.4-0.062 0.593-0.185l0 0zM37.079 18.656c-0.104 0-0.189 0.034-0.256 0.102s-0.1 0.154-0.1 0.259c0 0.104 0.034 0.189 0.103 0.255s0.156 0.099 0.262 0.099c0.107 0 0.194-0.033 0.261-0.1s0.101-0.152 0.101-0.257c0-0.103-0.035-0.189-0.106-0.257s-0.159-0.102-0.266-0.102h0zM37.090 18.462c0.167 0 0.305 0.053 0.415 0.161s0.165 0.242 0.165 0.404c0 0.158-0.056 0.288-0.168 0.392s-0.252 0.156-0.423 0.156c-0.164 0-0.301-0.053-0.411-0.159s-0.166-0.237-0.166-0.395c0-0.16 0.055-0.293 0.167-0.399s0.251-0.16 0.42-0.16v-0zM38.813 18.765v0.792h-0.22v-0.61c0-0.122-0.017-0.206-0.049-0.255s-0.089-0.072-0.171-0.072c-0.045 0-0.087 0.010-0.125 0.032s-0.081 0.059-0.129 0.113v0.792h-0.217v-1.091h0.217v0.144c0.111-0.112 0.219-0.168 0.325-0.168 0.139 0 0.247 0.067 0.324 0.201 0.116-0.133 0.237-0.201 0.364-0.201 0.106 0 0.193 0.039 0.262 0.117s0.103 0.196 0.103 0.355v0.644h-0.217v-0.649c0-0.091-0.019-0.161-0.056-0.209s-0.091-0.072-0.161-0.072c-0.090 0-0.173 0.046-0.251 0.139l-0-0zM40.171 18.668h-0.154v0.669c0.067 0.035 0.137 0.052 0.21 0.052 0.102 0 0.185-0.035 0.25-0.105s0.097-0.161 0.097-0.271c0-0.071-0.015-0.134-0.046-0.188s-0.072-0.094-0.125-0.119c-0.053-0.025-0.13-0.038-0.232-0.038v-0zM39.795 20.115v-1.649h0.381c0.195 0 0.347 0.048 0.456 0.145 0.108 0.096 0.162 0.231 0.162 0.404 0 0.164-0.051 0.298-0.153 0.403s-0.233 0.158-0.391 0.158c-0.070 0-0.148-0.015-0.233-0.046v0.586l-0.223-0zM41.52 19.339v-0.325l-0.145 0.056c-0.075 0.029-0.127 0.058-0.157 0.088s-0.046 0.067-0.046 0.111c0 0.045 0.014 0.082 0.044 0.111s0.066 0.043 0.113 0.043c0.069 0 0.133-0.028 0.192-0.084v-0zM41.734 18.898v0.464c0 0.037 0.013 0.055 0.039 0.055 0.027 0 0.068-0.019 0.124-0.057v0.132c-0.050 0.031-0.089 0.052-0.119 0.063s-0.061 0.017-0.094 0.017c-0.093 0-0.147-0.036-0.164-0.107-0.093 0.071-0.191 0.107-0.297 0.107-0.077 0-0.141-0.025-0.192-0.076s-0.077-0.113-0.077-0.189c0-0.069 0.025-0.13 0.075-0.185s0.121-0.097 0.213-0.129l0.278-0.095v-0.058c0-0.133-0.066-0.199-0.198-0.199-0.118 0-0.234 0.061-0.346 0.182v-0.235c0.084-0.098 0.206-0.147 0.364-0.147 0.118 0 0.213 0.031 0.285 0.092 0.024 0.020 0.045 0.046 0.064 0.079s0.031 0.066 0.036 0.099c0.006 0.033 0.007 0.095 0.007 0.187l0.001 0zM42.3 18.465v0.133c0.098-0.105 0.208-0.158 0.331-0.158 0.068 0 0.132 0.017 0.191 0.053s0.103 0.084 0.135 0.145c0.030 0.061 0.046 0.159 0.046 0.292v0.626h-0.217v-0.625c0-0.112-0.017-0.192-0.051-0.24s-0.092-0.072-0.172-0.072c-0.103 0-0.19 0.051-0.263 0.152v0.785h-0.223v-1.092l0.223 0zM43.931 18.465h0.243l-0.775 1.649h-0.243l0.371-0.788-0.423-0.861h0.248l0.294 0.614 0.285-0.614zM45.022 19.114h-0.095v-0.618h0.153l0.157 0.494 0.152-0.494h0.149v0.618h-0.095v-0.519l-0.159 0.519h-0.094l-0.169-0.528v0.528zM44.653 19.114h-0.104v-0.531h-0.203v-0.088h0.511v0.088h-0.205v0.531z"></path>
</symbol>
<symbol id="icon-facebook-1" viewBox="0 0 201 32">
<path fill="#4267b2" style="fill: var(--color7, #4267b2)" d="M43.16 7.275c-1.621 0-2.090 0.7-2.090 2.245v2.563h4.324l-0.433 4.14h-3.889v12.564h-5.19v-12.564h-3.496v-4.14h3.496v-2.492c0-4.176 1.729-6.382 6.552-6.382 1.011-0.002 2.021 0.056 3.024 0.175v3.896l-2.298-0.005z"></path>
<path fill="#4267b2" style="fill: var(--color7, #4267b2)" d="M45.754 19.908c0-4.667 2.27-8.182 7.026-8.182 2.594 0 4.178 1.299 4.936 2.913v-2.556h4.971v16.704h-4.971v-2.527c-0.721 1.615-2.342 2.878-4.936 2.878-4.756 0-7.026-3.51-7.026-8.182v-1.049zM50.942 21.032c0 2.49 0.936 4.14 3.35 4.14 2.127 0 3.207-1.509 3.207-3.895v-1.677c0-2.386-1.080-3.895-3.207-3.895-2.414 0-3.35 1.649-3.35 4.14v1.186z"></path>
<path fill="#4267b2" style="fill: var(--color7, #4267b2)" d="M73.496 11.731c2.016 0 3.926 0.422 4.971 1.123l-1.152 3.58c-1.081-0.501-2.262-0.765-3.459-0.772-2.811 0-4.032 1.579-4.032 4.282v0.982c0 2.703 1.225 4.282 4.032 4.282 1.197-0.007 2.378-0.271 3.459-0.772l1.152 3.579c-1.045 0.702-2.953 1.124-4.971 1.124-6.090 0-8.864-3.194-8.864-8.318v-0.772c0-5.123 2.774-8.318 8.864-8.318z"></path>
<path fill="#4267b2" style="fill: var(--color7, #4267b2)" d="M79.151 21.073v-1.473c0-4.737 2.774-7.855 8.432-7.855 5.332 0 7.674 3.158 7.674 7.791v2.667h-10.92c0.109 2.281 1.154 3.299 4.032 3.299 1.947 0 4-0.386 5.514-1.018l0.949 3.461c-1.369 0.704-4.18 1.229-6.664 1.229-6.567-0.002-9.017-3.193-9.017-8.102zM84.339 18.897h6.27v-0.421c0-1.825-0.756-3.273-3.024-3.273-2.344 0.002-3.246 1.442-3.246 3.687v0.007z"></path>
<path fill="#4267b2" style="fill: var(--color7, #4267b2)" d="M114.488 20.962c0 4.667-2.305 8.182-7.056 8.182-2.594 0-4.395-1.263-5.116-2.878v2.527h-4.899v-25.097l5.188-0.458v11.16c0.756-1.473 2.414-2.667 4.828-2.667 4.756 0 7.056 3.51 7.056 8.182l-0.002 1.051zM109.3 19.803c0-2.351-0.936-4.106-3.422-4.106-2.127 0-3.279 1.473-3.279 3.86v1.754c0 2.386 1.153 3.86 3.279 3.86 2.486 0 3.422-1.754 3.422-4.106v-1.263z"></path>
<path fill="#4267b2" style="fill: var(--color7, #4267b2)" d="M116.224 20.855v-0.841c0-4.809 2.811-8.283 8.54-8.283s8.541 3.474 8.541 8.283v0.841c0 4.808-2.811 8.283-8.54 8.283s-8.541-3.476-8.541-8.283zM128.115 19.662c0-2.211-0.937-3.965-3.36-3.965s-3.352 1.754-3.352 3.965v1.545c0 2.211 0.937 3.965 3.352 3.965s3.36-1.754 3.36-3.965v-1.545z"></path>
<path fill="#4267b2" style="fill: var(--color7, #4267b2)" d="M135.030 20.855v-0.841c0-4.809 2.811-8.283 8.539-8.283s8.54 3.474 8.54 8.283v0.841c0 4.808-2.812 8.283-8.54 8.283s-8.539-3.476-8.539-8.283zM146.921 19.662c0-2.211-0.938-3.965-3.352-3.965s-3.35 1.754-3.35 3.965v1.545c0 2.211 0.936 3.965 3.35 3.965s3.352-1.754 3.352-3.965v-1.545z"></path>
<path fill="#4267b2" style="fill: var(--color7, #4267b2)" d="M159.242 20.048l5.116-7.966h5.511l-5.367 8.247 5.584 8.457h-5.511l-5.332-8.182v8.182h-5.19v-25.092l5.19-0.458v16.812z"></path>
</symbol>
<symbol id="icon-git-lab-1" viewBox="0 0 103 32">
<path d="M34.175 17.815l-1.806-5.568c0.001 0.002 0.001 0.005 0.002 0.008-0.001-0.003-0.001-0.006-0.002-0.009v-0.001l-3.585-11.050c-0.196-0.582-0.736-0.973-1.354-0.968-0.62 0.003-1.145 0.386-1.337 0.976l-3.403 10.489h-10.736l-3.409-10.489c-0.192-0.59-0.716-0.973-1.337-0.976h-0.008c-0.611 0-1.151 0.388-1.35 0.977l-3.575 11.042c-0.001 0.003-0.001 0.006-0.002 0.008 0.001-0.002 0.001-0.005 0.002-0.008l-1.812 5.569c-0.133 0.408-0.134 0.848-0.002 1.257s0.391 0.765 0.738 1.017l15.649 11.384c0.002 0.002 0.005 0.003 0.007 0.004 0.007 0.005 0.013 0.010 0.020 0.014-0.006-0.004-0.012-0.009-0.019-0.013l-0-0c0.001 0.001 0.002 0.001 0.003 0.002l0.003 0.002 0 0c0.024 0.017 0.049 0.032 0.075 0.046 0.004 0.002 0.007 0.005 0.010 0.006l0 0c0.002 0.001 0.004 0.003 0.006 0.004s0.004 0.001 0.005 0.002c0.001 0.001 0.002 0.001 0.004 0.001 0.003 0.001 0.006 0.002 0.009 0.004 0.014 0.006 0.028 0.012 0.042 0.017s0.026 0.012 0.039 0.016l0.002 0.001c0.002 0.001 0.004 0.002 0.007 0.003s0.005 0.002 0.008 0.003l0.003 0.001c0.003 0.001 0.007 0.002 0.011 0.003l0.004 0.001c0.019 0.006 0.038 0.010 0.058 0.014 0.008 0.002 0.015 0.004 0.023 0.006l0.003 0.001c0.003 0.001 0.005 0.001 0.007 0.002 0.004 0.001 0.008 0.002 0.012 0.003s0.007 0 0.010 0.001l0.002 0h0c0.037 0.005 0.074 0.009 0.113 0.009h0.001c0.038 0 0.076-0.004 0.113-0.009h0l0.002-0c0.003-0.001 0.007-0 0.010-0.001s0.008-0.002 0.012-0.003c0.003-0 0.005-0.001 0.007-0.002l0.003-0.001c0.008-0.001 0.015-0.004 0.023-0.006 0.019-0.004 0.038-0.008 0.057-0.014l0.004-0.001c0.004-0.001 0.007-0.002 0.011-0.003 0.001-0 0.002-0.001 0.003-0.001 0.003-0.001 0.006-0.002 0.008-0.003s0.004-0.002 0.006-0.003l0.002-0.001c0.014-0.005 0.028-0.012 0.042-0.017 0.013-0.005 0.026-0.010 0.039-0.016 0.003-0.002 0.006-0.002 0.009-0.004l0.004-0.002c0.002-0.001 0.003-0.001 0.005-0.002s0.005-0.003 0.007-0.004l0-0c0.004-0.002 0.007-0.005 0.011-0.007 0.026-0.014 0.051-0.029 0.075-0.046 0.002-0.001 0.004-0.002 0.006-0.004l0.002-0.001c0.002-0.002 0.005-0.003 0.007-0.005l15.651-11.385c0.347-0.252 0.605-0.608 0.738-1.017s0.132-0.849-0.002-1.257zM27.44 2.23l3.069 9.462h-6.139l3.069-9.462zM29.972 13.292l-10.49 13.458 4.37-13.458 6.12 0zM16.558 31.073c0-0 0-0 0 0 0.001 0.002 0.002 0.005 0.003 0.007-0.001-0.003-0.002-0.005-0.003-0.007zM15.157 26.751l-10.484-13.459h6.121l4.364 13.459zM7.199 2.23l3.075 9.462h-6.139l3.064-9.462zM2.139 18.795c-0.074-0.054-0.129-0.13-0.157-0.217s-0.028-0.181 0.001-0.268l1.347-4.14 9.871 12.672-11.062-8.048zM16.821 31.452c-0.003-0.003-0.006-0.005-0.009-0.008l-0.002-0.002c-0.006-0.005-0.012-0.010-0.018-0.015-0.011-0.010-0.023-0.020-0.033-0.031l0.003 0.002 0.004 0.003c0.023 0.022 0.047 0.043 0.072 0.062l0.001 0.001c0.001 0.001 0.002 0.002 0.003 0.003-0.007-0.005-0.014-0.010-0.021-0.015zM17.319 28.237l-4.845-14.944h9.698l-4.852 14.944zM17.844 31.427c-0.006 0.005-0.012 0.010-0.018 0.015l-0.002 0.002c-0.003 0.003-0.006 0.005-0.009 0.008-0.007 0.005-0.014 0.010-0.021 0.015 0.001-0.001 0.002-0.002 0.003-0.003l0.001-0.001c0.025-0.019 0.049-0.039 0.072-0.061 0.001-0.001 0.002-0.002 0.003-0.002s0.003-0.002 0.004-0.003c-0.011 0.010-0.022 0.020-0.033 0.030zM32.499 18.794l-11.061 8.045 9.875-12.668 1.342 4.138c0.029 0.087 0.029 0.181 0.001 0.268s-0.083 0.163-0.157 0.217z"></path>
<path d="M72.014 7.855h-2.181l0.010 16.279h8.835v-2.014h-6.653l-0.010-14.265z"></path>
<path d="M87.085 21.277c-0.55 0.571-1.461 1.142-2.701 1.142-1.661 0-2.331-0.821-2.331-1.893 0-1.613 1.121-2.384 3.502-2.384 0.45 0 1.171 0.050 1.541 0.12v3.015h-0.010zM84.824 11.409c-1.761 0-3.382 0.621-4.642 1.673l0.77 1.342c0.89-0.521 1.981-1.042 3.552-1.042 1.791 0 2.581 0.922 2.581 2.464v0.791c-0.35-0.070-1.071-0.12-1.511-0.12-3.822 0-5.763 1.342-5.763 4.147 0 2.515 1.541 3.777 3.872 3.777 1.571 0 3.082-0.721 3.602-1.893l0.4 1.593h1.541v-8.335c-0.010-2.635-1.151-4.398-4.402-4.398z"></path>
<path d="M96.264 22.494c-0.82 0-1.541-0.1-2.081-0.351v-7.523c0.74-0.621 1.661-1.072 2.832-1.072 2.111 0 2.921 1.493 2.921 3.907 0 3.426-1.311 5.039-3.672 5.039zM97.184 11.414c-1.951 0-3.002 1.332-3.002 1.332v-2.104l-0.010-2.785h-2.131l0.010 15.878c1.071 0.451 2.531 0.691 4.122 0.691 4.072 0 6.033-2.605 6.033-7.103-0.010-3.556-1.821-5.91-5.023-5.91z"></path>
<path d="M48.266 9.621c1.931 0 3.182 0.641 3.992 1.292l0.941-1.633c-1.271-1.122-2.992-1.723-4.833-1.723-4.643 0-7.894 2.835-7.894 8.555 0 5.991 3.512 8.325 7.524 8.325 2.011 0 3.722-0.471 4.843-0.942l-0.050-6.401v-2.014h-5.953v2.014h3.802l0.050 4.859c-0.5 0.25-1.361 0.451-2.531 0.451-3.222 0-5.383-2.034-5.383-6.311-0.010-4.358 2.221-6.472 5.493-6.472z"></path>
<path d="M63.627 7.853h-2.131l0.010 2.735v9.447c0 2.635 1.141 4.398 4.392 4.398 0.45 0 0.89-0.040 1.311-0.12v-1.913c-0.31 0.050-0.64 0.070-0.991 0.070-1.791 0-2.581-0.922-2.581-2.464v-6.512h3.572v-1.783h-3.572l-0.010-3.857z"></path>
<path d="M56.076 24.134h2.131v-12.422h-2.131v12.422z"></path>
<path d="M56.076 9.998h2.131v-2.134h-2.131v2.134z"></path>
</symbol>
<symbol id="icon-google-1" viewBox="0 0 95 32">
<path fill="#ea4335" style="fill: var(--color8, #ea4335)" d="M40.383 16.41c0 4.442-3.485 7.715-7.763 7.715s-7.763-3.273-7.763-7.715c0-4.473 3.485-7.715 7.763-7.715s7.763 3.242 7.763 7.715zM36.985 16.41c0-2.776-2.020-4.675-4.365-4.675s-4.365 1.899-4.365 4.675c0 2.748 2.020 4.675 4.365 4.675s4.365-1.93 4.365-4.675z"></path>
<path fill="#fbbc05" style="fill: var(--color9, #fbbc05)" d="M57.13 16.41c0 4.442-3.485 7.715-7.763 7.715s-7.763-3.273-7.763-7.715c0-4.47 3.485-7.715 7.763-7.715s7.763 3.242 7.763 7.715zM53.732 16.41c0-2.776-2.020-4.675-4.364-4.675s-4.365 1.899-4.365 4.675c0 2.748 2.020 4.675 4.365 4.675s4.364-1.93 4.364-4.675z"></path>
<path fill="#4285f4" style="fill: var(--color10, #4285f4)" d="M73.178 9.162v13.85c0 5.697-3.37 8.024-7.354 8.024-3.751 0-6.008-2.501-6.859-4.546l2.959-1.228c0.527 1.256 1.818 2.737 3.897 2.737 2.55 0 4.131-1.569 4.131-4.522v-1.11h-0.118c-0.761 0.936-2.226 1.753-4.075 1.753-3.869 0-7.414-3.36-7.414-7.684 0-4.355 3.545-7.743 7.414-7.743 1.846 0 3.311 0.817 4.075 1.725h0.118v-1.256h3.227v-0.003zM70.192 16.438c0-2.716-1.818-4.703-4.131-4.703-2.344 0-4.309 1.986-4.309 4.703 0 2.689 1.964 4.647 4.309 4.647 2.313 0 4.131-1.958 4.131-4.647z"></path>
<path fill="#34a853" style="fill: var(--color11, #34a853)" d="M78.499 1.044v22.609h-3.314v-22.609h3.314z"></path>
<path fill="#ea4335" style="fill: var(--color8, #ea4335)" d="M91.415 18.95l2.638 1.753c-0.851 1.256-2.903 3.419-6.447 3.419-4.396 0-7.679-3.388-7.679-7.715 0-4.588 3.311-7.715 7.299-7.715 4.016 0 5.98 3.186 6.622 4.908l0.352 0.876-10.344 4.271c0.792 1.548 2.023 2.337 3.751 2.337 1.73 0 2.931-0.849 3.81-2.136zM83.296 16.174l6.915-2.863c-0.38-0.963-1.525-1.635-2.871-1.635-1.727 0-4.131 1.52-4.044 4.497z"></path>
<path fill="#4285f4" style="fill: var(--color10, #4285f4)" d="M12.312 14.403v-3.273h11.063c0.108 0.57 0.164 1.245 0.164 1.976 0 2.456-0.673 5.492-2.843 7.656-2.111 2.191-4.808 3.36-8.38 3.36-6.622 0-12.19-5.377-12.19-11.979s5.568-11.979 12.19-11.979c3.663 0 6.273 1.433 8.234 3.301l-2.317 2.31c-1.406-1.315-3.311-2.337-5.921-2.337-4.836 0-8.617 3.885-8.617 8.706s3.782 8.706 8.617 8.706c3.136 0 4.923-1.256 6.067-2.396 0.928-0.925 1.539-2.247 1.779-4.052l-7.846 0.003z"></path>
</symbol>
<symbol id="icon-intel-1" viewBox="0 0 66 32">
<path fill="#0071c5" style="fill: var(--color12, #0071c5)" d="M25.55 13.968v5.789h-1.854v-7.276l3.827 0.004c1.625 0 2.179 1.14 2.179 2.175v5.098h-1.85v-5.089c0-0.434-0.226-0.7-0.77-0.7h-1.532zM38.154 13.882c-0.633 0-1.124 0.324-1.329 0.763-0.121 0.264-0.163 0.466-0.177 0.789h2.852c-0.037-0.789-0.397-1.553-1.346-1.553zM36.648 16.688c0 0.943 0.589 1.636 1.642 1.636 0.819 0 1.225-0.226 1.699-0.694l1.145 1.087c-0.733 0.719-1.502 1.156-2.857 1.156-1.774 0-3.472-0.962-3.472-3.765 0-2.395 1.483-3.751 3.431-3.751 1.975 0 3.115 1.588 3.115 3.667v0.664h-4.702zM33.239 19.748c-1.51 0-2.151-1.045-2.151-2.077v-7.173h1.851v1.983h1.395v1.488h-1.395v3.587c0 0.423 0.201 0.657 0.642 0.657h0.753v1.535h-1.095zM22.048 11.475h-1.866v-1.762h1.866v1.762zM22.052 19.834c-1.398-0.134-1.873-0.976-1.873-1.949l0.002-5.404h1.871v7.353zM44.295 19.678c-1.395-0.134-1.868-0.975-1.868-1.946v-8.27h1.868v10.216zM50.824 10.657c-1.693-8.205-17.712-8.724-28.037-2.475v0.69c10.315-5.27 24.944-5.239 26.277 2.318 0.446 2.499-0.971 5.104-3.5 6.602v1.959c3.045-1.107 6.167-4.698 5.26-9.094zM32.055 25.013c-7.126 0.655-14.552-0.373-15.591-5.91-0.509-2.729 0.742-5.622 2.401-7.419v-0.961c-2.986 2.604-4.607 5.9-3.674 9.795 1.191 4.995 7.564 7.825 17.292 6.885 3.849-0.373 8.886-1.604 12.389-3.515v-2.715c-3.178 1.881-8.437 3.437-12.816 3.84z"></path>
<path fill="#0071c5" style="fill: var(--color12, #0071c5)" d="M46.454 10.011c0-0.090-0.053-0.119-0.174-0.119h-0.117v0.255c0.017 0 0.102 0.003 0.117 0.003 0.121 0 0.174-0.040 0.174-0.124v-0.015zM46.636 10.643h-0.138c-0.012 0-0.023-0.008-0.029-0.018l-0.189-0.318c-0.003-0.006-0.020-0.014-0.026-0.014h-0.085v0.315c0 0.017-0.012 0.035-0.034 0.035h-0.125c-0.016 0-0.031-0.018-0.031-0.035v-0.798c0-0.046 0.018-0.065 0.057-0.071 0.044-0.006 0.164-0.010 0.229-0.010 0.23 0 0.369 0.067 0.369 0.282v0.015c0 0.133-0.066 0.203-0.17 0.237l0.196 0.329c0.001 0.007 0.006 0.016 0.006 0.024 0 0.013-0.008 0.027-0.030 0.027v0zM46.307 9.585c-0.34 0-0.616 0.279-0.616 0.616s0.275 0.612 0.616 0.612c0.339 0 0.617-0.275 0.617-0.612s-0.278-0.616-0.617-0.616zM46.307 10.94c-0.414 0-0.743-0.332-0.743-0.739s0.33-0.739 0.743-0.739c0.409 0 0.745 0.333 0.745 0.739s-0.336 0.739-0.745 0.739z"></path>
</symbol>
<symbol id="icon-code-camp" viewBox="0 0 260 32">
<path fill="#006400" style="fill: var(--color1, #006400)" d="M3.836 10.109h-2.273c-0.781 0-1.208-0.291-1.208-1.091 0-0.727 0.426-1.091 1.208-1.091h2.273v-2.036c0-3.564 1.776-5.382 5.257-5.382 1.35 0 2.557 0.291 3.552 0.8 1.208 0.8 1.776 1.891 1.776 3.2 0 0.945-0.284 1.309-0.995 1.309-0.497 0-0.924-0.291-1.066-0.8-0.284-0.945-0.568-1.527-0.781-1.745-0.426-0.509-1.279-0.8-2.486-0.8-2.202 0-3.126 1.091-3.126 3.2v2.036h4.12c0.924 0 1.35 0.291 1.35 1.091 0 0.727-0.497 1.091-1.35 1.091h-4.12v13.455c0 0.8-0.284 1.236-0.995 1.236s-0.995-0.436-0.995-1.236l-0.142-13.236zM22.235 22.4v-12.218h-3.055c-0.852 0-1.279-0.291-1.279-1.091 0-0.727 0.426-1.091 1.279-1.091h4.049c0.71 0 1.066 0.582 1.066 1.818 1.279-1.382 2.557-2.109 4.049-2.109 1.208 0 2.060 0.291 2.771 1.091s0.994 1.745 0.994 2.909c0 0.8-0.284 1.236-0.994 1.236-0.426 0-0.71-0.291-0.924-0.8-0.284-1.018-0.497-1.527-0.497-1.6-0.284-0.509-0.924-0.8-1.563-0.8-0.782 0-1.563 0.291-2.202 0.945-0.426 0.291-0.995 0.945-1.705 1.891v9.818h3.836c0.924 0 1.279 0.291 1.279 1.018s-0.426 1.091-1.279 1.091h-8.88c-0.924 0-1.279-0.291-1.279-1.091 0-0.727 0.426-1.091 1.279-1.091h3.126l-0.071 0.073zM37.65 16.582v2.327c0 2.546 1.705 3.709 5.115 3.709 1.279 0 2.273-0.073 3.055-0.436 0.426-0.073 1.066-0.509 2.060-1.236 0.568-0.582 1.066-0.873 1.279-0.873 0.568 0 0.924 0.291 0.924 0.873s-0.426 1.309-1.279 2.036c-1.35 1.091-3.481 1.745-6.109 1.745-4.76 0-7.104-1.891-7.104-5.891v-5.745c0-1.309 0.497-2.545 1.492-3.418 1.279-1.309 3.268-1.891 5.825-1.891 4.618 0 6.891 2.4 6.891 7.2 0 1.236-0.497 1.745-1.279 1.745l-10.869-0.145zM37.65 14.473h10.159c0-3.127-1.705-4.727-5.115-4.727-1.279 0-2.344 0.291-3.481 0.945-0.994 0.8-1.563 1.6-1.563 2.618v1.164zM55.481 16.582v2.327c0 2.546 1.705 3.709 5.115 3.709 1.279 0 2.273-0.073 3.055-0.436 0.426-0.073 1.066-0.509 2.060-1.236 0.568-0.582 1.066-0.873 1.279-0.873 0.568 0 0.924 0.291 0.924 0.873s-0.426 1.309-1.279 2.036c-1.35 1.091-3.481 1.745-6.109 1.745-4.76 0-7.104-1.891-7.104-5.891v-5.745c0-1.309 0.497-2.545 1.492-3.418 1.279-1.309 3.268-1.891 5.825-1.891 4.618 0 6.891 2.4 6.891 7.2 0 1.236-0.497 1.745-1.279 1.745l-10.869-0.145zM55.481 14.473h10.159c0-3.127-1.705-4.727-5.115-4.727-1.279 0-2.344 0.291-3.481 0.945-1.065 0.8-1.563 1.6-1.563 2.618v1.164zM71.393 18.037v-9.091c0-4.873 2.486-7.2 7.388-7.2 1.989 0 3.552 0.509 4.831 1.309 1.35 1.091 2.060 2.618 2.060 4.582 0 0.945-0.284 1.309-1.066 1.309-0.497 0-0.924-0.436-1.066-1.309-0.071-0.727-0.426-1.382-0.781-2.036-0.568-1.236-1.989-1.745-4.12-1.745-1.776 0-3.126 0.509-3.978 1.382s-1.066 2.255-1.066 4.145v7.564c0 2.036 0.426 3.418 1.208 4.218 0.924 0.945 2.202 1.527 3.978 1.527 2.77 0 4.333-1.018 4.76-2.909 0.213-0.8 0.213-1.091 0.213-1.236 0.213-0.436 0.497-0.582 0.924-0.582 0.71 0 1.066 0.509 1.066 1.309 0 1.818-0.781 3.2-2.202 4.364-1.208 0.8-2.7 1.236-4.618 1.236-2.273 0-4.049-0.509-5.328-1.6-1.492-1.236-2.202-3.054-2.202-5.236zM88.94 19.346v-6.036c0-3.709 2.344-5.527 7.104-5.527s7.104 1.818 7.104 5.527v6.036c0 3.709-2.344 5.527-7.033 5.527-4.76-0.073-7.175-1.891-7.175-5.527zM101.087 19.346v-6.036c0-2.327-1.705-3.418-5.115-3.418-3.268 0-5.044 1.236-5.044 3.418v6.036c0 2.327 1.705 3.418 5.115 3.418 3.481-0.073 5.044-1.236 5.044-3.418zM118.776 22.764c-0.995 0.8-1.776 1.236-2.557 1.527s-1.776 0.509-2.842 0.509c-1.847 0-3.481-0.436-4.617-1.236-1.35-0.945-2.060-2.327-2.060-4.218v-6.255c0-1.818 0.71-3.2 1.989-4.145 1.066-0.8 2.7-1.236 4.476-1.236 1.208 0 2.202 0.073 2.984 0.436 0.781 0.291 1.705 0.8 2.557 1.6v-7.564c0-1.018 0.284-1.527 0.995-1.527s1.066 0.509 1.066 1.527v21.527c0 0.8-0.284 1.091-0.995 1.091-0.426 0-0.71-0.218-0.781-0.727-0.142-0.291-0.213-0.727-0.213-1.309zM118.634 20.364v-8.509c-0.994-0.8-1.776-1.309-2.486-1.527-0.924-0.291-1.776-0.509-2.771-0.509-1.279 0-2.344 0.218-3.126 0.8-0.995 0.582-1.563 1.6-1.563 2.764v5.891c0 1.236 0.497 2.109 1.563 2.836 0.923 0.509 1.847 0.8 3.268 0.8 1.065 0 2.060-0.218 2.841-0.509 0.71-0.655 1.492-1.236 2.273-2.036zM126.519 16.582v2.327c0 2.546 1.705 3.709 5.115 3.709 1.279 0 2.273-0.073 3.055-0.436 0.426-0.073 1.065-0.509 2.060-1.236 0.568-0.582 1.066-0.873 1.279-0.873 0.568 0 0.924 0.291 0.924 0.873s-0.426 1.309-1.279 2.036c-1.35 1.091-3.481 1.745-6.109 1.745-4.76 0-7.104-1.891-7.104-5.891v-5.745c0-1.309 0.497-2.545 1.492-3.418 1.279-1.309 3.268-1.891 5.825-1.891 4.617 0 6.891 2.4 6.891 7.2 0 1.236-0.497 1.745-1.279 1.745l-10.869-0.145zM126.519 14.473h10.158c0-3.127-1.705-4.727-5.115-4.727-1.279 0-2.344 0.291-3.481 0.945-1.066 0.8-1.563 1.6-1.563 2.618v1.164zM142.432 18.037v-9.091c0-4.873 2.486-7.2 7.388-7.2 1.989 0 3.552 0.509 4.831 1.309 1.35 1.091 2.060 2.618 2.060 4.582 0 0.945-0.284 1.309-1.066 1.309-0.497 0-0.924-0.436-1.066-1.309-0.071-0.727-0.426-1.382-0.781-2.036-0.568-1.236-1.989-1.745-4.12-1.745-1.776 0-3.126 0.509-3.978 1.382-0.781 0.945-1.066 2.255-1.066 4.145v7.564c0 2.036 0.426 3.418 1.208 4.218 0.852 0.945 2.202 1.527 3.978 1.527 2.771 0 4.333-1.018 4.76-2.909 0.213-0.8 0.213-1.091 0.213-1.236 0.213-0.436 0.497-0.582 0.852-0.582 0.71 0 1.066 0.509 1.066 1.309 0 1.818-0.781 3.2-2.202 4.364-1.208 0.8-2.699 1.236-4.618 1.236-2.273 0-4.049-0.509-5.328-1.6-1.421-1.236-2.131-3.054-2.131-5.236zM171.415 22.764c-0.994 0.8-1.776 1.309-2.344 1.527-0.781 0.291-1.705 0.509-2.77 0.509-1.705 0-3.126-0.291-4.262-1.091-1.279-0.945-1.847-2.109-1.847-3.855s0.71-3.055 1.989-4.073c1.066-0.873 2.557-1.309 4.333-1.309 1.35 0 2.984 0.291 4.831 1.018v-2.618c0-1.236-0.568-2.109-1.705-2.618-0.782-0.291-1.776-0.509-2.842-0.509-2.699 0-4.049 0.8-4.333 2.327-0.071 0.727-0.213 1.091-0.213 1.091-0.213 0.291-0.497 0.509-0.924 0.509-0.781 0-1.066-0.436-1.066-1.236 0-1.091 0.426-2.109 1.279-3.055 0.994-1.236 2.841-1.745 5.541-1.745 2.060 0 3.623 0.291 4.617 1.091 1.208 0.945 1.776 2.327 1.776 4.436v7.491c0 0.873 0.213 1.527 0.497 1.745 0 0 0.426 0.218 0.995 0.509 0.284 0.218 0.497 0.509 0.497 1.018 0 0.582-0.284 0.945-0.923 0.945-0.213 0-0.497 0-0.924-0.218-0.781-0.291-1.279-0.509-1.35-0.509-0.497-0.364-0.71-0.8-0.853-1.382zM171.344 20.582v-3.127c-1.563-0.509-3.126-0.8-4.475-0.8-3.055 0-4.546 1.018-4.546 3.055 0 1.091 0.497 1.891 1.35 2.327 0.781 0.436 1.705 0.582 2.77 0.582 0.995 0 1.847-0.218 2.628-0.582 0.568-0.146 1.279-0.655 2.273-1.455zM179.301 9.455c0.497-0.582 0.994-1.091 1.279-1.309 0.497-0.291 0.995-0.509 1.776-0.509 1.066 0 2.060 0.582 2.984 1.818 0.568-0.727 1.066-1.236 1.563-1.382 0.497-0.291 1.208-0.436 1.989-0.436 2.486 0 3.623 1.236 3.623 3.709v11.927c0 1.018-0.284 1.527-1.066 1.527-0.71 0-0.994-0.509-0.994-1.527v-11.2c0-1.527-0.568-2.327-1.776-2.327-0.924 0-1.776 0.582-2.557 1.745v11.782c0 1.018-0.284 1.527-0.995 1.527s-0.994-0.509-0.994-1.527v-10.909c0-1.745-0.71-2.545-1.989-2.545-0.923 0-1.705 0.582-2.486 1.745v11.855c0 1.018-0.284 1.527-1.066 1.527-0.71 0-0.995-0.509-0.995-1.527v-14.546c0-0.727 0.284-1.091 0.924-1.091 0.284 0 0.568 0.218 0.781 0.582-0.071 0.291 0 0.8 0 1.091zM197.77 9.455c1.563-1.236 3.482-1.745 5.542-1.745 4.332 0 6.392 1.891 6.392 5.527v6.036c0 1.746-0.568 3.127-1.776 4.146-1.064 0.945-2.556 1.309-4.474 1.309-2.202 0-4.050-0.582-5.755-1.818v6.982c0 1.091-0.284 1.6-0.995 1.6s-0.994-0.509-0.994-1.6v-20.582c0-1.091 0.284-1.6 0.852-1.6 0.284 0 0.568 0.218 0.781 0.582 0.142 0.436 0.213 0.873 0.426 1.164zM197.77 20.655c1.492 1.309 3.268 2.036 5.328 2.036 1.28 0 2.344-0.218 3.126-0.8 0.994-0.582 1.35-1.527 1.35-2.618v-6.036c0-1.309-0.498-2.109-1.564-2.764-0.78-0.436-1.846-0.582-3.124-0.582-1.208 0-2.202 0.218-2.842 0.509-0.711 0.291-1.35 0.945-2.345 1.891v8.364h0.071zM216.738 14.764c0-4.655 1.562-8.8 4.618-12.291 1.064-1.309 2.060-2.036 2.698-2.036 0.214 0 0.498 0 0.568 0.218 0.214 0.218 0.286 0.291 0.286 0.582s-0.428 0.873-1.208 1.745c-3.268 3.2-4.832 7.2-4.832 11.927 0 5.236 1.706 9.6 5.044 12.8 0.71 0.582 0.996 1.236 0.996 1.6 0 0.218-0.072 0.509-0.286 0.582-0.212 0.218-0.426 0.291-0.568 0.291-0.78 0-1.846-0.945-3.268-2.836-2.77-3.345-4.048-7.491-4.048-12.582zM259.644 16c0 4.655-1.562 8.8-4.616 12.291-1.066 1.309-2.060 2.036-2.7 2.036-0.214 0-0.498 0-0.568-0.218-0.214-0.218-0.284-0.436-0.284-0.582 0-0.291 0.426-0.945 1.208-1.6 3.266-3.2 4.83-7.2 4.83-11.927 0-5.236-1.706-9.6-5.044-12.8-0.71-0.582-0.994-1.236-0.994-1.6 0-0.218 0.070-0.509 0.284-0.582 0.212-0.218 0.426-0.291 0.568-0.291 0.782 0 1.846 0.945 3.268 2.836 2.7 3.273 4.048 7.491 4.048 12.436zM247.924 29.309h-19.608c-0.568 0-1.206-0.509-1.206-1.236s0.496-1.236 1.206-1.236h19.608c0.568 0 1.208 0.509 1.208 1.236-0.072 0.727-0.428 1.236-1.208 1.236zM234 2.982c0 0 1.704 1.236 1.704 3.2 0 3.636-4.83 7.709-4.83 11.491 0 4.146 3.054 6.764 5.896 7.564 0.426 0.073 0.568-0.436 0.072-0.509-1.208-0.291-2.558-1.891-2.558-4.436 0-2.327 2.202-3.2 3.054-4.364 0.924-1.236 0.712-2.618 0.214-3.055s-0.214-1.018 0.782-0.291c0.922 0.727 1.776 1.891 1.492 3.127-0.428 1.527 0.070 2.4 0.922 2.545 0.782 0.073 1.706-0.291 1.564-1.018-0.072-0.727-0.498-1.527-0.284-1.527 0.568 0 1.776 1.382 1.776 3.636s-1.776 3.855-2.346 4.436c-0.284 0.291 0.072 0.8 0.57 0.582 0.212-0.073 0.71-0.436 0.994-0.582 1.35-1.018 3.622-3.127 3.622-7.055 0-4.145-1.492-5.964-3.054-7.491-1.492-1.527-1.846-1.091-1.492-0.436 1.28 2.327 0.498 3.055-0.426 3.055-1.066 0-1.208-2.618-1.562-4.582-0.996-4.436-4.832-5.164-5.542-5.164-0.782 0.073-1.492 0.436-0.568 0.873z"></path>
</symbol>
<symbol id="icon-uber" viewBox="0 0 119 32">
<path d="M22.889 22.113c0.347 0.922 0.828 1.71 1.442 2.365s1.342 1.156 2.183 1.503 1.756 0.521 2.744 0.521c0.961 0 1.863-0.18 2.704-0.541s1.576-0.869 2.203-1.523c0.628-0.655 1.115-1.436 1.462-2.345s0.521-1.924 0.521-3.047v-17.317h4.206v28.059h-4.166v-2.605c-0.935 0.989-2.036 1.75-3.305 2.285s-2.637 0.802-4.106 0.802c-1.496 0-2.891-0.261-4.186-0.782s-2.417-1.263-3.365-2.225c-0.948-0.962-1.696-2.118-2.243-3.467s-0.821-2.853-0.821-4.51v-17.557h4.206v17.317c0 1.122 0.174 2.145 0.521 3.067zM47.606 1.73v10.222c0.935-0.935 2.016-1.677 3.245-2.225s2.564-0.822 4.006-0.822c1.496 0 2.898 0.281 4.206 0.842s2.444 1.323 3.405 2.285c0.962 0.962 1.723 2.098 2.284 3.407s0.841 2.699 0.841 4.169c0 1.47-0.28 2.853-0.841 4.149s-1.322 2.425-2.284 3.387c-0.961 0.962-2.096 1.724-3.405 2.285s-2.711 0.842-4.206 0.842c-1.442 0-2.784-0.274-4.026-0.822s-2.33-1.289-3.265-2.225v2.565h-4.006v-28.059h4.046zM48.067 22.374c0.361 0.855 0.861 1.603 1.502 2.245s1.389 1.149 2.243 1.523c0.855 0.374 1.776 0.561 2.764 0.561 0.962 0 1.87-0.187 2.724-0.561s1.596-0.882 2.223-1.523c0.628-0.641 1.128-1.39 1.502-2.245s0.561-1.777 0.561-2.766c0-0.989-0.187-1.918-0.561-2.786s-0.875-1.623-1.502-2.265c-0.628-0.641-1.369-1.142-2.223-1.503s-1.763-0.541-2.724-0.541c-0.961 0-1.869 0.18-2.724 0.541s-1.602 0.862-2.243 1.503c-0.641 0.641-1.148 1.396-1.522 2.265s-0.561 1.797-0.561 2.786c-0 0.989 0.18 1.911 0.541 2.766zM67.876 15.479c0.534-1.283 1.269-2.412 2.203-3.387s2.043-1.744 3.325-2.305c1.282-0.561 2.671-0.842 4.166-0.842 1.469 0 2.831 0.267 4.086 0.802s2.337 1.276 3.245 2.225c0.908 0.949 1.616 2.071 2.123 3.367s0.761 2.706 0.761 4.229v1.323h-16.625c0.134 0.828 0.401 1.597 0.801 2.305s0.901 1.323 1.502 1.844c0.601 0.521 1.282 0.929 2.043 1.223s1.569 0.441 2.424 0.441c2.43 0 4.393-1.002 5.889-3.006l2.924 2.165c-1.015 1.363-2.27 2.432-3.765 3.207s-3.178 1.162-5.048 1.162c-1.522 0-2.944-0.267-4.266-0.802s-2.47-1.283-3.445-2.245-1.743-2.091-2.303-3.387c-0.561-1.296-0.841-2.706-0.841-4.229-0-1.443 0.267-2.806 0.801-4.089zM73.504 13.896c-1.135 0.949-1.889 2.211-2.263 3.788h12.459c-0.347-1.577-1.088-2.839-2.223-3.788s-2.464-1.423-3.986-1.423c-1.522 0-2.851 0.474-3.986 1.423zM95.357 14.357c-0.855 0.935-1.282 2.205-1.282 3.808v11.625h-4.046v-20.443h4.006v2.525c0.507-0.828 1.168-1.483 1.983-1.964s1.782-0.722 2.904-0.722h1.402v3.768h-1.682c-1.335 0-2.431 0.468-3.286 1.403z"></path>
</symbol>

<symbol id="icon-bitbucket-1" viewBox="0 0 32 32">
<path fill="#fff" style="fill: var(--color1, #fff)" d="M1.006 0.334h-0.014c-0.152 0.001-0.294 0.039-0.42 0.105l0.005-0.002c-0.136 0.073-0.249 0.17-0.338 0.288l-0.002 0.003c-0.090 0.12-0.16 0.261-0.198 0.415l-0.002 0.008c-0.024 0.092-0.038 0.198-0.038 0.307 0 0.060 0.004 0.12 0.012 0.178l-0.001-0.007 4.214 28.773c0.107 0.723 0.667 1.259 1.32 1.266h20.211c0.238 0.003 0.469-0.090 0.65-0.263 0.182-0.171 0.303-0.411 0.342-0.674l4.211-29.096c0.023-0.16 0.014-0.322-0.025-0.478-0.041-0.162-0.11-0.303-0.202-0.426l0.002 0.003c-0.090-0.119-0.203-0.217-0.333-0.286l-0.005-0.003c-0.12-0.065-0.263-0.104-0.414-0.105l-28.976-0.005zM18.745 21.127h-6.451l-1.745-10.265h9.76l-1.563 10.265z"></path>
</symbol>
<symbol id="icon-github-2-1" viewBox="0 0 32 32">
<path fill="#f9f9f9" style="fill: var(--color2, #f9f9f9)" d="M16.078 0.534c-3.831 0-7.531 1.342-10.419 3.776-2.92 2.463-4.85 5.839-5.451 9.542-0.132 0.763-0.207 1.642-0.207 2.539 0 3.041 0.865 5.879 2.362 8.283l-0.039-0.066c1.955 3.206 5.033 5.63 8.675 6.834 0.809 0.145 1.095-0.352 1.095-0.77v-2.697c-4.486 0.963-5.432-2.131-5.432-2.131-0.312-0.982-0.942-1.788-1.767-2.317l-0.017-0.010c-1.451-0.974 0.118-0.974 0.118-0.974 0.507 0.072 0.993 0.256 1.417 0.538 0.426 0.283 0.781 0.658 1.038 1.097 0.554 0.976 1.549 1.646 2.707 1.741l0.012 0.001c0.086 0.008 0.185 0.012 0.286 0.012 0.612 0 1.187-0.159 1.685-0.438l-0.018 0.009c0.062-0.8 0.411-1.554 0.985-2.122-3.568-0.4-7.315-1.762-7.315-7.786-0-0.027-0.001-0.059-0.001-0.091 0-1.613 0.627-3.079 1.651-4.168l-0.003 0.003c-0.205-0.565-0.324-1.216-0.324-1.896 0-0.832 0.178-1.622 0.497-2.335l-0.014 0.036s1.35-0.43 4.416 1.625c1.206-0.34 2.592-0.535 4.023-0.535s2.816 0.195 4.131 0.561l-0.108-0.026c3.065-2.055 4.406-1.625 4.406-1.625 0.592 1.314 0.663 2.802 0.198 4.166 1.020 1.086 1.646 2.552 1.646 4.164 0 0.032-0 0.063-0.001 0.094l0-0.005c0 6.095-3.755 7.429-7.335 7.787 0.682 0.676 1.105 1.613 1.105 2.649 0 0.096-0.004 0.191-0.011 0.285l0.001-0.012v4.351c0 0.517 0.286 0.915 1.103 0.76 3.602-1.234 6.633-3.665 8.554-6.859 1.427-2.319 2.273-5.128 2.273-8.134 0-0.901-0.076-1.785-0.222-2.644l0.013 0.093c-0.6-3.674-2.509-7.029-5.397-9.486-2.855-2.425-6.515-3.779-10.317-3.817z"></path>
</symbol>
<symbol id="icon-gitlab-1" viewBox="0 0 32 32">
<path fill="#fff" style="fill: var(--color1, #fff)" d="M15.554 31.102l-5.73-18.583h11.454l-5.722 18.583z"></path>
<path fill="#fff" style="fill: var(--color1, #fff)" opacity="0.65" d="M29.307 12.519l1.746 5.646c0.158 0.514-0.013 1.079-0.43 1.398l-15.067 11.539 13.751-18.583z"></path>
<path fill="#fff" style="fill: var(--color1, #fff)" d="M29.307 12.519h-8.027l3.456-11.192c0.176-0.571 0.947-0.571 1.131 0l3.441 11.192z"></path>
<path fill="#fff" style="fill: var(--color1, #fff)" opacity="0.65" d="M1.798 12.519l-1.741 5.646c-0.158 0.514 0.014 1.079 0.431 1.398l15.069 11.539-13.76-18.583z"></path>
<path fill="#fff" style="fill: var(--color1, #fff)" d="M1.798 12.519h8.026l-3.448-11.192c-0.072-0.249-0.298-0.427-0.565-0.427s-0.493 0.179-0.564 0.423l-0.001 0.004-3.448 11.192z"></path>
<path fill="#fff" style="fill: var(--color1, #fff)" opacity="0.85" d="M15.558 31.102l-5.731-18.583h-8.029l13.76 18.583z"></path>
<path fill="#fff" style="fill: var(--color1, #fff)" opacity="0.85" d="M15.557 31.102l13.751-18.583h-8.027l-5.722 18.583z"></path>
</symbol>

<symbol id="icon-go-1" viewBox="0 0 32 32">
<path fill="#00acd7" style="fill: var(--color1, #00acd7)" d="M5.055 14.379c-0.051 0-0.063-0.028-0.038-0.071l0.264-0.384c0.025-0.043 0.088-0.071 0.139-0.071h4.488c0.050 0 0.063 0.043 0.038 0.085l-0.213 0.37c-0.026 0.043-0.089 0.085-0.127 0.085l-4.551-0.014zM3.156 15.687c-0.051 0-0.063-0.028-0.038-0.071l0.264-0.384c0.025-0.043 0.088-0.071 0.139-0.071h5.733c0.051 0 0.076 0.043 0.063 0.085l-0.101 0.341c-0.012 0.057-0.063 0.085-0.113 0.085l-5.947 0.014zM6.199 16.996c-0.050 0-0.063-0.043-0.038-0.085l0.177-0.356c0.025-0.043 0.076-0.085 0.126-0.085h2.515c0.050 0 0.075 0.043 0.075 0.1l-0.024 0.341c0 0.057-0.051 0.1-0.089 0.1l-2.741-0.014zM19.25 14.123c-0.792 0.228-1.332 0.398-2.112 0.626-0.188 0.057-0.201 0.071-0.365-0.142-0.188-0.242-0.326-0.398-0.59-0.54-0.792-0.441-1.56-0.313-2.276 0.213-0.856 0.626-1.295 1.55-1.282 2.702 0.012 1.138 0.704 2.076 1.697 2.233 0.855 0.128 1.572-0.213 2.137-0.939 0.114-0.156 0.213-0.327 0.34-0.526h-2.427c-0.264 0-0.327-0.185-0.238-0.427 0.162-0.441 0.465-1.18 0.64-1.55 0.038-0.085 0.127-0.228 0.315-0.228h4.577c-0.026 0.384-0.026 0.768-0.076 1.152-0.134 1.051-0.501 1.996-1.046 2.811l0.015-0.024c-0.905 1.351-2.087 2.19-3.584 2.418-1.233 0.185-2.376-0.085-3.381-0.939-0.932-0.796-1.459-1.849-1.598-3.157-0.164-1.55 0.239-2.944 1.069-4.167 0.892-1.323 2.074-2.162 3.52-2.46 1.183-0.242 2.315-0.085 3.333 0.697 0.666 0.498 1.144 1.18 1.458 2.005 0.076 0.128 0.026 0.199-0.126 0.242z"></path>
<path fill="#00acd7" style="fill: var(--color1, #00acd7)" d="M23.412 21.988c-1.144-0.028-2.188-0.398-3.068-1.252-0.741-0.725-1.207-1.65-1.357-2.745-0.226-1.607 0.162-3.029 1.018-4.295 0.917-1.365 2.024-2.076 3.52-2.375 1.284-0.256 2.49-0.114 3.584 0.725 0.993 0.768 1.609 1.806 1.773 3.172 0.213 1.92-0.276 3.484-1.446 4.821-0.768 0.894-1.802 1.54-2.98 1.813l-0.038 0.007c-0.34 0.071-0.679 0.085-1.006 0.128zM26.405 16.242c-0.012-0.185-0.012-0.327-0.038-0.469-0.225-1.408-1.37-2.204-2.565-1.892-1.17 0.299-1.924 1.138-2.201 2.475-0.225 1.109 0.252 2.233 1.157 2.688 0.692 0.341 1.383 0.299 2.050-0.085 0.993-0.583 1.534-1.493 1.596-2.716z"></path>
</symbol>
<symbol id="icon-Java-1" viewBox="0 0 32 32">
<path fill="#fff" style="fill: var(--color2, #fff)" d="M0 0h32v32h-32v-32z"></path>
<path fill="#3174b9" style="fill: var(--color3, #3174b9)" d="M13.343 16.889s-0.764 0.444 0.545 0.594c1.586 0.181 2.395 0.155 4.142-0.175 0 0 0.461 0.288 1.102 0.538-3.917 1.678-8.866-0.097-5.79-0.958zM12.864 14.696s-0.858 0.635 0.453 0.77c1.695 0.175 3.032 0.19 5.348-0.256 0 0 0.32 0.325 0.823 0.503-4.737 1.385-10.011 0.109-6.623-1.016z"></path>
<path fill="#ca3132" style="fill: var(--color4, #ca3132)" d="M16.9 10.981c0.966 1.112-0.254 2.112-0.254 2.112s2.452-1.266 1.326-2.85c-1.051-1.478-1.858-2.212 2.507-4.742 0 0-6.85 1.71-3.579 5.48z"></path>
<path fill="#3174b9" style="fill: var(--color3, #3174b9)" d="M22.081 18.509s0.565 0.467-0.623 0.827c-2.26 0.685-9.412 0.891-11.398 0.027-0.713-0.311 0.626-0.742 1.047-0.832 0.439-0.095 0.69-0.078 0.69-0.078-0.794-0.559-5.132 1.099-2.203 1.574 7.988 1.295 14.56-0.583 12.488-1.517zM13.71 12.428s-3.636 0.864-1.287 1.178c0.992 0.133 2.969 0.102 4.812-0.053 1.192-0.108 2.224-0.248 3.242-0.429l-0.226 0.033s-0.53 0.228-0.914 0.489c-3.694 0.972-10.829 0.519-8.775-0.474 1.737-0.841 3.149-0.744 3.149-0.744zM20.236 16.075c3.755-1.951 2.018-3.826 0.806-3.573-0.296 0.062-0.429 0.115-0.429 0.115s0.11-0.173 0.32-0.247c2.399-0.843 4.242 2.485-0.772 3.803 0 0 0.057-0.052 0.075-0.098z"></path>
<path fill="#ca3132" style="fill: var(--color4, #ca3132)" d="M17.972 1.412s2.079 2.081-1.972 5.279c-3.25 2.566-0.741 4.030-0.001 5.701-1.896-1.711-3.289-3.218-2.355-4.62 1.37-2.057 5.167-3.055 4.328-6.36z"></path>
<path fill="#3174b9" style="fill: var(--color3, #3174b9)" d="M14.080 21.362c3.603 0.23 9.138-0.128 9.269-1.833 0 0-0.252 0.646-2.978 1.159-3.076 0.578-6.871 0.512-9.12 0.14 0 0 0.461 0.382 2.829 0.533z"></path>
<path fill="#ca3132" style="fill: var(--color4, #ca3132)" d="M23.182 24.42h-0.109v-0.062h0.296v0.062h-0.11v0.308h-0.076v-0.308zM23.772 24.435l-0.11 0.292h-0.050l-0.108-0.292h-0.001v0.292h-0.073v-0.367h0.107l0.101 0.261 0.101-0.261h0.105v0.367h-0.071v-0.292zM13.49 27.877c-0.34 0.295-0.699 0.461-1.022 0.461-0.46 0-0.71-0.276-0.71-0.718 0-0.479 0.268-0.828 1.336-0.828h0.396v1.086zM14.427 28.935v-3.276c0-0.837-0.478-1.389-1.628-1.389-0.671 0-1.26 0.166-1.739 0.377l0.137 0.581c0.377-0.139 0.865-0.268 1.343-0.268 0.664 0 0.948 0.267 0.948 0.82v0.414h-0.332c-1.609 0-2.336 0.625-2.336 1.564 0 0.809 0.479 1.269 1.38 1.269 0.581 0 1.013-0.239 1.417-0.589l0.073 0.498h0.736zM17.557 28.935h-1.169l-1.409-4.582h1.022l0.875 2.816 0.194 0.846c0.441-1.224 0.754-2.466 0.91-3.662h0.993c-0.265 1.509-0.744 3.164-1.416 4.582zM22.047 27.877c-0.341 0.295-0.7 0.461-1.023 0.461-0.459 0-0.709-0.276-0.709-0.718 0-0.479 0.268-0.828 1.336-0.828h0.396v1.086zM22.984 28.935v-3.276c0-0.837-0.479-1.389-1.628-1.389-0.672 0-1.261 0.166-1.739 0.377l0.137 0.581c0.377-0.139 0.865-0.268 1.344-0.268 0.661 0 0.948 0.267 0.948 0.82v0.414h-0.332c-1.612 0-2.337 0.625-2.337 1.564 0 0.809 0.478 1.269 1.38 1.269 0.581 0 1.012-0.239 1.417-0.589l0.075 0.498h0.735zM9.792 29.714c-0.268 0.391-0.699 0.699-1.173 0.875l-0.462-0.545c0.36-0.185 0.668-0.484 0.812-0.761 0.124-0.248 0.175-0.565 0.175-1.327v-5.231h0.997v5.159c0 1.019-0.081 1.431-0.348 1.831z"></path>
</symbol>
<symbol id="icon-Node-of-Typescrypt-1" viewBox="0 0 32 32">
<path fill="#3178c6" style="fill: var(--color5, #3178c6)" d="M28.875 0h-25.749c-1.726 0-3.125 1.399-3.125 3.125v0 25.749c0 1.726 1.399 3.125 3.125 3.125v0h25.749c1.726 0 3.125-1.399 3.125-3.125v0-25.749c0-1.726-1.399-3.125-3.125-3.125v0z"></path>
<path fill="#fff" style="fill: var(--color2, #fff)" d="M19.809 25.464v3.129c0.508 0.261 1.109 0.456 1.804 0.587s1.427 0.196 2.196 0.196c0.75 0 1.463-0.071 2.137-0.215 0.676-0.143 1.268-0.379 1.775-0.709 0.51-0.329 0.913-0.76 1.209-1.292 0.296-0.531 0.444-1.188 0.444-1.97 0-0.567-0.084-1.064-0.254-1.491-0.171-0.427-0.415-0.806-0.735-1.138-0.334-0.342-0.711-0.639-1.124-0.882l-0.025-0.014c-0.418-0.25-0.915-0.5-1.429-0.716l-0.081-0.030c-0.495-0.201-0.859-0.367-1.217-0.544l0.111 0.050c-0.319-0.154-0.591-0.317-0.848-0.501l0.017 0.011c-0.207-0.146-0.383-0.32-0.524-0.521l-0.005-0.007c-0.117-0.173-0.186-0.386-0.186-0.616 0-0.006 0-0.011 0-0.017v0.001c-0-0.004-0-0.008-0-0.013 0-0.211 0.062-0.407 0.169-0.572l-0.003 0.004c0.111-0.173 0.268-0.321 0.471-0.446 0.201-0.123 0.45-0.219 0.743-0.288s0.62-0.103 0.978-0.103c0.608 0.005 1.193 0.092 1.748 0.251l-0.046-0.011c0.294 0.083 0.58 0.185 0.856 0.308 0.277 0.124 0.533 0.268 0.768 0.43v-2.923c-0.448-0.175-0.973-0.317-1.517-0.401l-0.043-0.005c-0.549-0.084-1.182-0.132-1.827-0.132-0.040 0-0.080 0-0.12 0.001l0.006-0c-0.744 0-1.448 0.079-2.113 0.239-0.666 0.155-1.253 0.413-1.776 0.76l0.020-0.012c-0.505 0.339-0.904 0.77-1.197 1.295-0.294 0.525-0.441 1.152-0.441 1.882 0 0.933 0.269 1.728 0.807 2.386 0.538 0.659 1.355 1.216 2.45 1.671 0.431 0.178 0.832 0.35 1.203 0.519 0.372 0.169 0.693 0.346 0.964 0.529 0.271 0.183 0.485 0.38 0.641 0.596 0.146 0.198 0.234 0.447 0.234 0.717 0 0.212-0.054 0.411-0.15 0.585l0.003-0.006c-0.111 0.186-0.261 0.337-0.439 0.447l-0.006 0.003c-0.214 0.132-0.463 0.234-0.728 0.293l-0.016 0.003c-0.296 0.073-0.644 0.109-1.041 0.109-1.478-0.006-2.829-0.545-3.872-1.434l0.008 0.007zM14.549 17.755h4.013v-2.567h-11.188v2.567h3.994v11.432h3.18v-11.432z"></path>
</symbol>
<symbol id="icon-Pythone-1" viewBox="0 0 32 32">
<path d="M15.885 0c-8.124 0-7.617 3.541-7.617 3.541l0.009 3.669h7.751v1.101h-10.829s-5.199-0.593-5.199 7.647 4.537 7.948 4.537 7.948h2.708v-3.823s-0.146-4.562 4.465-4.562h7.688s4.32 0.071 4.32-4.196v-7.058s0.657-4.268-7.834-4.268zM11.61 2.468c0.77 0 1.395 0.626 1.395 1.402 0 0.775-0.623 1.401-1.395 1.401-0.77 0-1.395-0.626-1.395-1.401 0-0.776 0.623-1.402 1.395-1.402z"></path>
<path d="M16.115 32c8.124 0 7.617-3.541 7.617-3.541l-0.009-3.669h-7.751v-1.101h10.83s5.198 0.593 5.198-7.647-4.537-7.948-4.537-7.948h-2.708v3.823s0.146 4.562-4.465 4.562h-7.689s-4.319-0.071-4.319 4.196v7.057s-0.657 4.269 7.834 4.269zM20.39 29.532c-0.77 0-1.395-0.626-1.395-1.402 0-0.775 0.623-1.401 1.395-1.401 0.77 0 1.395 0.626 1.395 1.401 0 0.776-0.623 1.402-1.395 1.402z"></path>
</symbol>
<symbol id="icon-rust-1" viewBox="0 0 32 32">
<path d="M15.789 5.262c-5.791 0-10.504 4.716-10.504 10.504s4.715 10.504 10.504 10.504c5.788 0 10.504-4.716 10.504-10.504s-4.716-10.504-10.504-10.504zM15.774 6.195c0.372 0.009 0.671 0.313 0.671 0.687 0 0.002 0 0.003-0 0.005v-0c-0.001 0.381-0.31 0.689-0.691 0.689s-0.691-0.309-0.691-0.691 0.309-0.691 0.691-0.691c0.007 0 0.014 0 0.021 0l-0.001-0zM17.356 7.333c2.509 0.482 4.588 2.012 5.8 4.107l0.022 0.041-0.815 1.839c-0.034 0.075-0.053 0.162-0.053 0.255 0 0.256 0.151 0.476 0.369 0.577l0.004 0.002 1.569 0.696c0.047 0.491 0.055 0.984 0.018 1.476h-0.873c-0.087 0-0.122 0.057-0.122 0.142v0.399c0 0.942-0.531 1.15-0.998 1.201-0.444 0.051-0.936-0.187-0.998-0.459-0.262-1.473-0.698-1.786-1.387-2.33 0.856-0.543 1.745-1.345 1.745-2.417 0-1.157-0.794-1.886-1.333-2.244-0.76-0.5-1.6-0.601-1.826-0.601h-9.023c1.218-1.357 2.854-2.316 4.705-2.676l0.054-0.009 1.064 1.116c0.114 0.12 0.276 0.195 0.454 0.195 0.169 0 0.322-0.067 0.435-0.175l-0 0 1.191-1.137zM7.533 12.449c0.004-0 0.010-0 0.015-0 0.382 0 0.692 0.31 0.692 0.692s-0.31 0.692-0.692 0.692c-0.019 0-0.039-0.001-0.058-0.002l0.003 0c-0.358-0.030-0.637-0.327-0.637-0.69 0-0.377 0.301-0.684 0.676-0.692h0.001zM24.011 12.48c0 0 0.001 0 0.001 0 0.382 0 0.691 0.309 0.691 0.691s-0.309 0.691-0.691 0.691c-0.014 0-0.028-0-0.042-0.001l0.002 0c-0.364-0.022-0.651-0.322-0.651-0.69 0-0.381 0.309-0.69 0.69-0.691h0zM8.836 12.591h1.204v5.431h-2.431c-0.207-0.698-0.326-1.501-0.326-2.331 0-0.323 0.018-0.641 0.053-0.955l-0.003 0.039 1.49-0.661c0.222-0.1 0.374-0.32 0.374-0.575 0-0.092-0.020-0.18-0.056-0.259l0.002 0.004-0.307-0.691zM13.862 12.648h2.868c0.151 0 1.048 0.172 1.048 0.845 0 0.557-0.689 0.759-1.256 0.759h-2.662l0.002-1.604zM13.862 16.551h2.199c0.199 0 1.073 0.058 1.351 1.173 0.087 0.343 0.28 1.458 0.41 1.816 0.132 0.399 0.664 1.199 1.229 1.199h3.588c-0.252 0.337-0.51 0.634-0.787 0.913l0-0-1.46-0.314c-0.040-0.009-0.085-0.014-0.132-0.014-0.301 0-0.553 0.211-0.616 0.493l-0.001 0.004-0.346 1.618c-1.031 0.479-2.237 0.758-3.509 0.758-1.3 0-2.532-0.292-3.633-0.813l0.052 0.022-0.347-1.618c-0.062-0.286-0.314-0.498-0.614-0.498-0.047 0-0.092 0.005-0.136 0.015l0.004-0.001-1.429 0.306c-0.257-0.265-0.499-0.549-0.721-0.848l-0.016-0.023h6.949c0.078 0 0.13-0.012 0.13-0.087v-2.458c0-0.071-0.052-0.087-0.13-0.087h-2.034l0.002-1.557zM10.656 22.181c0 0 0 0 0 0 0.382 0 0.691 0.309 0.691 0.691s-0.309 0.691-0.691 0.691c-0.014 0-0.028-0-0.042-0.001l0.002 0c-0.373-0.011-0.671-0.316-0.671-0.691 0-0.382 0.309-0.691 0.691-0.691 0.007 0 0.014 0 0.021 0l-0.001-0zM20.889 22.212c0.373 0.011 0.671 0.316 0.671 0.691 0 0.382-0.309 0.691-0.691 0.691-0.007 0-0.014-0-0.021-0l0.001 0c-0.373-0.011-0.671-0.316-0.671-0.691 0-0.382 0.309-0.691 0.691-0.691 0.007 0 0.014 0 0.021 0l-0.001-0z"></path>
<path stroke-linejoin="round" stroke-linecap="round" stroke-miterlimit="4" stroke-width="3.5556" d="M25.707 15.767v0c0-5.477-4.44-9.918-9.918-9.918s-9.918 4.44-9.918 9.918v0c0 5.477 4.44 9.918 9.918 9.918s9.918-4.44 9.918-9.918zM25.519 14.809l1.547 0.958-1.547 0.958 1.33 1.242-1.702 0.639 1.062 1.478-1.798 0.293 0.755 1.658-1.819-0.065 0.417 1.774-1.773-0.418 0.064 1.82-1.657-0.756-0.294 1.798-1.478-1.062-0.638 1.702-1.242-1.329-0.958 1.547-0.958-1.547-1.242 1.329-0.638-1.702-1.478 1.062-0.294-1.798-1.658 0.756 0.065-1.82-1.773 0.418 0.417-1.774-1.82 0.065 0.756-1.658-1.798-0.293 1.062-1.478-1.702-0.639 1.329-1.242-1.547-0.958 1.547-0.958-1.329-1.242 1.702-0.638-1.062-1.478 1.798-0.294-0.756-1.657 1.82 0.064-0.417-1.773 1.773 0.417-0.065-1.819 1.659 0.755 0.293-1.798 1.478 1.063 0.638-1.703 1.242 1.33 0.958-1.547 0.958 1.547 1.242-1.33 0.638 1.703 1.478-1.063 0.294 1.798 1.657-0.755-0.064 1.819 1.773-0.417-0.416 1.773 1.819-0.064-0.755 1.657 1.798 0.294-1.062 1.478 1.702 0.638-1.33 1.242z"></path>
</symbol>
<symbol id="icon-Svelte-1" viewBox="0 0 32 32">
<path fill="#ff3e00" style="fill: var(--color7, #ff3e00)" d="M29.945 4.231c-3.556-4.258-10.633-5.505-15.723-2.821l-8.971 4.773c-2.446 1.275-4.142 3.362-4.632 5.722-0.11 0.483-0.172 1.038-0.172 1.608 0 1.552 0.466 2.995 1.266 4.197l-0.017-0.028c-0.782 0.977-1.304 2.061-1.532 3.2-0.521 2.413 0.162 4.908 1.858 6.888 3.589 4.257 10.635 5.505 15.724 2.821l8.969-4.747c2.446-1.274 4.143-3.362 4.633-5.722 0.109-0.483 0.172-1.037 0.172-1.606 0-1.552-0.466-2.996-1.267-4.198l0.017 0.028c0.782-0.975 1.305-2.061 1.534-3.2 0.555-2.44-0.13-4.935-1.86-6.914z"></path>
<path fill="#fff" style="fill: var(--color2, #fff)" d="M13.342 28.177c-2.904 0.623-5.938-0.326-7.633-2.359-1.044-1.195-1.436-2.686-1.143-4.151 0.065-0.244 0.13-0.461 0.196-0.705l0.164-0.434 0.456 0.271c1.077 0.652 2.252 1.139 3.524 1.465l0.326 0.081-0.033 0.273c-0.032 0.379 0.098 0.786 0.359 1.111 0.521 0.623 1.435 0.922 2.316 0.732 0.196-0.055 0.391-0.108 0.555-0.19l8.937-4.745c0.457-0.244 0.75-0.597 0.849-1.031 0.019-0.088 0.029-0.188 0.029-0.291 0-0.366-0.134-0.701-0.357-0.957l0.002 0.002c-0.521-0.625-1.435-0.896-2.316-0.705-0.196 0.053-0.391 0.108-0.555 0.19l-3.425 1.817c-0.555 0.299-1.173 0.516-1.826 0.651-2.904 0.623-5.938-0.326-7.633-2.359-1.012-1.193-1.436-2.686-1.109-4.151 0.293-1.41 1.337-2.684 2.805-3.443l8.969-4.747c0.555-0.297 1.175-0.514 1.828-0.678 2.904-0.623 5.937 0.326 7.633 2.36 1.043 1.193 1.435 2.684 1.141 4.148-0.065 0.245-0.13 0.462-0.228 0.706l-0.164 0.434-0.456-0.271c-1.077-0.652-2.252-1.139-3.524-1.465l-0.326-0.081 0.032-0.271c0.002-0.031 0.003-0.066 0.003-0.102 0-0.385-0.136-0.737-0.363-1.012l0.002 0.003c-0.521-0.623-1.435-0.895-2.316-0.705-0.196 0.055-0.391 0.108-0.555 0.19l-8.939 4.745c-0.456 0.244-0.75 0.597-0.847 1.031-0.098 0.434 0.032 0.895 0.326 1.247 0.521 0.625 1.435 0.895 2.316 0.705 0.196-0.053 0.391-0.108 0.555-0.19l3.425-1.817c0.555-0.299 1.173-0.516 1.826-0.678 2.904-0.623 5.938 0.326 7.633 2.359 1.044 1.195 1.436 2.686 1.143 4.151-0.294 1.41-1.338 2.684-2.805 3.443l-8.971 4.747c-0.525 0.279-1.133 0.512-1.773 0.667l-0.054 0.011z"></path>
</symbol>

<symbol id="icon-footer-twitter-1" viewBox="0 0 32 32">
<path d="M0 16c0-8.836 7.164-16 16-16s16 7.164 16 16-7.164 16-16 16-16-7.164-16-16zM15.52 13.005l0.035 0.553-0.56-0.067c-2.037-0.261-3.816-1.143-5.327-2.623l-0.739-0.733-0.191 0.541c-0.403 1.209-0.147 2.485 0.693 3.344 0.448 0.475 0.347 0.543-0.425 0.26-0.268-0.091-0.503-0.157-0.525-0.124-0.079 0.080 0.191 1.107 0.403 1.515 0.291 0.564 0.884 1.117 1.533 1.445l0.548 0.26-0.648 0.012c-0.627 0-0.649 0.011-0.583 0.248 0.224 0.733 1.108 1.515 2.093 1.853l0.693 0.237-0.604 0.361c-0.896 0.52-1.947 0.813-3 0.836-0.503 0.011-0.917 0.056-0.917 0.091 0 0.113 1.365 0.747 2.16 0.993 2.384 0.735 5.215 0.419 7.341-0.836 1.511-0.892 3.023-2.667 3.727-4.384 0.381-0.915 0.761-2.587 0.761-3.389 0-0.52 0.033-0.587 0.66-1.208 0.369-0.363 0.717-0.757 0.784-0.871 0.112-0.213 0.101-0.213-0.471-0.023-0.951 0.339-1.085 0.293-0.615-0.213 0.347-0.363 0.76-1.017 0.76-1.211 0-0.033-0.167 0.023-0.357 0.125-0.276 0.139-0.602 0.27-0.941 0.373l-0.044 0.011-0.604 0.192-0.548-0.373c-0.303-0.203-0.728-0.429-0.952-0.497-0.571-0.157-1.443-0.135-1.959 0.045-1.399 0.509-2.283 1.82-2.181 3.253z"></path>
</symbol>
<symbol id="icon-footer-github-1" viewBox="0 0 32 32">
<path d="M16.076 0c-3.997 0.001-7.647 1.481-10.436 3.921l0.018-0.016c-2.842 2.488-4.814 5.907-5.439 9.777l-0.013 0.095c-0.132 0.79-0.208 1.699-0.208 2.627 0 3.135 0.864 6.069 2.367 8.575l-0.042-0.076c1.977 3.335 5.053 5.84 8.675 7.069 0.809 0.151 1.095-0.363 1.095-0.796v-2.789c-4.485 0.997-5.432-2.205-5.432-2.205-0.306-1.009-0.937-1.841-1.768-2.397l-0.016-0.010c-1.449-1.007 0.117-1.007 0.117-1.007 0.508 0.073 0.993 0.263 1.419 0.556 0.427 0.293 0.78 0.681 1.037 1.136 0.217 0.403 0.512 0.76 0.865 1.047 0.576 0.477 1.323 0.766 2.137 0.766 0.615 0 1.191-0.165 1.687-0.453l-0.016 0.009c0.065-0.859 0.428-1.622 0.986-2.195l-0.001 0.001c-3.569-0.413-7.316-1.823-7.316-8.056-0.001-0.031-0.001-0.068-0.001-0.105 0-1.654 0.625-3.162 1.653-4.3l-0.005 0.006c-0.206-0.586-0.325-1.261-0.325-1.964 0-0.859 0.177-1.676 0.497-2.417l-0.015 0.040s1.351-0.443 4.417 1.683c1.206-0.352 2.591-0.554 4.023-0.554s2.817 0.202 4.128 0.58l-0.105-0.026c3.067-2.125 4.407-1.683 4.407-1.683 0.317 0.711 0.501 1.542 0.501 2.415 0 0.678-0.111 1.33-0.316 1.939l0.012-0.043c1.022 1.133 1.648 2.641 1.648 4.295 0 0.037-0 0.074-0.001 0.11l0-0.006c0 6.304-3.756 7.684-7.336 8.056 0.384 0.395 0.68 0.868 0.869 1.389s0.267 1.079 0.227 1.632v4.501c0 0.533 0.285 0.947 1.103 0.787 3.657-1.323 6.622-3.817 8.512-7.021l0.041-0.075c1.429-2.41 2.274-5.313 2.274-8.413 0-0.933-0.076-1.847-0.223-2.738l0.013 0.097c-0.637-3.936-2.588-7.331-5.38-9.797l-0.018-0.015c-2.741-2.419-6.351-3.909-10.309-3.951l-0.009-0z"></path>
</symbol>
<symbol id="icon-footer-message-1" viewBox="0 0 32 32">
<path d="M0 15.72v16.28l15.987-0.016c8.68 0 15.72-7.309 15.72-15.989s-7.047-15.995-15.717-15.995c-8.68 0-15.989 7.039-15.989 15.72zM7.773 10.845c1.73-2.869 4.829-4.758 8.369-4.76h0.010c5.381 0.001 9.743 4.363 9.743 9.744s-4.363 9.744-9.744 9.744c-1.451 0-2.829-0.317-4.066-0.886l0.061 0.025-6.332 1.432 1.764-5.671c-0.74-1.341-1.175-2.939-1.175-4.64 0-1.841 0.51-3.562 1.397-5.031l-0.024 0.044z"></path>
</symbol>
</defs>
</svg>
